<svg width="566" height="438" viewBox="0 0 566 438" fill="none" xmlns="http://www.w3.org/2000/svg">
<ellipse cx="94.5" cy="158" rx="27.5" ry="28" fill="#A6FDD3"/>
<ellipse cx="395.5" cy="293" rx="96.5" ry="98" fill="#A6FDD3"/>
<path fill-rule="evenodd" clip-rule="evenodd" d="M296.179 164.979C295.739 164.29 294.957 165.109 295.284 165.607C295.583 165.398 295.881 165.189 296.179 164.979ZM308.283 168.808C307.791 168.541 307.624 168.961 307.43 169.445C307.373 169.586 307.314 169.734 307.244 169.871C307.686 170.136 307.89 169.672 308.096 169.202C308.157 169.065 308.217 168.928 308.283 168.808ZM299.759 152.274C298.771 150.902 298.699 151.363 298.617 152.926C298.807 152.817 298.998 152.708 299.189 152.599C299.379 152.491 299.57 152.383 299.759 152.274ZM434.817 78.0912C433.572 78.7251 433.439 79.1855 434.446 79.961C434.566 79.3578 434.653 78.9154 434.817 78.0912ZM295.741 142.046C296.035 143.095 297.239 143.32 297.239 142.046H295.741ZM388.993 88.0377C389.711 88.2862 390.077 88.4135 390.4 88.333C390.736 88.2496 391.026 87.941 391.617 87.3108C391.326 87.3918 391.065 87.4644 390.815 87.5335C390.613 87.5893 390.419 87.6427 390.223 87.6973C389.845 87.8018 389.459 87.9086 388.993 88.0377ZM355.706 195.466C355.281 194.814 354.857 194.163 354.433 193.511C354.289 193.99 354.146 194.47 354.003 194.949L354.002 194.952L353.896 195.305C354.499 195.359 355.102 195.412 355.706 195.466ZM441.716 62.0694C441.548 62.9398 441.465 63.3702 441.623 63.6163C441.778 63.857 442.163 63.9212 442.925 64.0491L442.353 63.112L442.282 62.9944C442.107 62.7087 441.924 62.4097 441.716 62.0694ZM434.983 64.7922C434.93 64.5089 434.877 64.2249 434.824 63.9416L434.816 63.8984C434.766 63.6295 434.716 63.3606 434.665 63.091C434.575 63.5238 434.23 63.5004 433.895 63.477C433.607 63.4572 433.326 63.438 433.219 63.7099C432.688 65.0557 434.375 64.8732 434.983 64.7922ZM306.739 165.212C306.369 164.415 306.287 164.353 305.481 164.186C305.688 164.981 305.688 165.602 305.687 166.397V166.562C307.004 166.359 307.419 166.255 307.443 164.729L306.739 165.212ZM302.895 168.025C302.721 168.73 302.228 168.56 301.808 168.414C301.428 168.282 301.106 168.171 301.135 168.75C301.119 168.415 302.648 170.616 302.561 170.545C303.33 171.176 303.778 171.116 304.65 170.392C303.407 170.341 303.263 169.666 303.071 168.758C303.022 168.527 302.969 168.28 302.895 168.025ZM444.58 64.1331C444.309 64.8114 444.038 65.4903 443.766 66.1686L443.707 66.3187C443.455 66.9472 443.204 67.5757 442.953 68.2035C442.839 68.4887 442.751 68.7402 442.674 68.9575C442.314 69.9863 442.216 70.2655 440.898 69.8147C440.943 69.7306 441.051 69.5644 441.186 69.3561V69.3555C441.593 68.7282 442.248 67.7191 442.175 67.4136C442.107 67.1261 441.458 66.7707 440.869 66.449C440.506 66.2497 440.165 66.0636 440 65.9141C439.523 65.4819 439.349 65.0881 439.165 64.6715C439.057 64.4266 438.945 64.1727 438.766 63.899C438.958 63.2123 438.809 62.8911 438.316 62.9374C438.175 63.3522 438.033 63.7663 437.891 64.1805L437.883 64.2069L437.772 64.5287C437.798 65.1668 438.089 65.4105 438.431 65.6968C438.693 65.9171 438.986 66.162 439.211 66.6308L439.254 66.7203C439.58 67.3992 439.673 67.5949 439.622 67.7185C439.601 67.7683 439.555 67.8062 439.492 67.8596C439.361 67.9706 439.15 68.1477 438.912 68.6357C438.693 69.0853 438.542 69.5782 438.394 70.0572C438.113 70.969 437.846 71.8328 437.161 72.2626C437.723 72.5309 438.284 72.7992 438.845 73.0669C437.535 74.6324 440.26 73.8701 440.711 73.7182L440.71 73.7212L440.709 73.7242C440.248 74.7879 439.788 75.851 439.328 76.9147C438.306 76.2922 437.667 75.2567 437.031 74.2267C436.808 73.8647 436.584 73.5027 436.345 73.16C435.644 74.5766 434.944 75.9939 434.243 77.4111C434.563 77.3793 434.882 77.3469 435.2 77.3151C435.579 77.2772 435.957 77.2394 436.334 77.201C436.312 77.2466 436.249 77.3517 436.167 77.4903L436.166 77.4909C435.883 77.9669 435.361 78.8409 435.42 79.0769C435.561 79.6381 436.121 79.8032 436.669 79.9647C437.336 80.1615 437.986 80.353 437.842 81.245C437.808 81.4533 435.682 83.7866 435.317 84.0117C435.542 84.1215 435.74 84.1984 435.911 84.265C436.551 84.5129 436.788 84.6053 436.486 85.6888C435.99 85.3629 435.494 85.0363 434.998 84.7098C434.905 84.8917 434.809 85.0724 434.712 85.2536L434.712 85.2542C434.37 85.8953 434.027 86.5406 433.817 87.2453C433.868 87.8366 433.772 88.3967 433.526 88.9261C433.234 89.3997 432.904 89.8415 432.538 90.2509C432.248 91.0823 432.155 95.6203 432.504 96.3604C433.284 95.2638 435.028 97.1996 432.085 97.1996C431.84 97.1996 431.644 97.1894 431.485 97.1804C430.809 97.1438 430.79 97.1426 430.391 98.1397C430.004 99.1091 429.794 99.9549 430.892 100.048C430.229 101.471 430.213 102.631 430.193 104.01C430.189 104.348 430.184 104.698 430.169 105.069C430.122 106.252 429.875 107.429 429.631 108.596C429.56 108.937 429.489 109.276 429.422 109.616C429.553 109.412 429.684 109.207 429.815 109.003C429.945 108.799 430.076 108.595 430.207 108.39C430.785 109.731 430.527 110.9 430.231 112.242C430.166 112.535 430.1 112.838 430.04 113.152C429.62 112.549 429.411 112.909 429.192 113.29C429.029 113.572 428.86 113.865 428.593 113.782C427.84 113.548 427.865 113.351 427.905 113.04C427.932 112.825 427.967 112.556 427.755 112.184C427.656 112.012 427.582 111.867 427.517 111.739C427.284 111.284 427.171 111.063 426.521 110.687C425.732 110.229 424.516 110.086 423.432 109.96C423.003 109.909 422.595 109.862 422.241 109.798C420.173 109.422 418.102 109.325 416.01 109.225L415.927 109.221C407.99 108.847 400.081 108.751 392.145 109.225C384.845 109.662 377.367 110.777 370.208 112.286C369.698 112.393 369.188 112.501 368.679 112.607C361.588 114.096 354.637 115.555 347.75 118.091C347.115 118.325 346.479 118.672 345.844 119.018V119.019C345.053 119.451 344.26 119.883 343.47 120.096C342.913 120.247 342.354 120.335 341.792 120.424C340.99 120.55 340.18 120.677 339.351 120.99C337.483 121.696 335.579 122.308 333.674 122.919C332.136 123.413 330.597 123.908 329.077 124.452C328.103 124.801 327.108 125.134 326.107 125.469C323.336 126.397 320.514 127.342 317.95 128.677C317.182 129.077 316.45 129.549 315.717 130.022C315.003 130.482 314.29 130.942 313.543 131.336C313.23 131.502 312.87 131.664 312.491 131.834C311.141 132.442 309.55 133.158 308.961 134.516C308.667 135.194 308.717 135.686 308.9 136.389C309.238 137.69 309.51 137.661 310.331 137.574C310.4 137.567 310.473 137.559 310.55 137.552C311.422 137.468 312.454 136.972 313.435 136.502C314.013 136.224 314.572 135.956 315.07 135.785C318.75 134.523 322.474 133.513 326.216 132.502C329.041 131.739 331.871 130.728 334.695 129.72C338.589 128.33 342.472 126.943 346.316 126.214C348.291 125.839 350.215 125.141 352.141 124.442C354.05 123.75 355.961 123.056 357.929 122.675C358.212 122.62 358.668 122.44 359.18 122.239C360.241 121.822 361.54 121.311 362.021 121.625C362.147 121.708 362.396 122.398 362.595 122.951C362.694 123.224 362.781 123.464 362.834 123.581C363.418 124.851 364.088 126.077 364.872 127.215C366.608 129.733 368.778 131.892 370.929 134.031L370.93 134.032C371.709 134.806 372.485 135.578 373.237 136.363C375.61 138.842 377.755 141.508 379.907 144.184V144.185C380.688 145.154 381.469 146.125 382.262 147.089C382.402 146.912 382.543 146.734 382.683 146.557L383.038 146.108C382.787 148.215 384.102 149.781 385.316 151.228C385.367 151.289 385.419 151.35 385.469 151.411C385.523 151.475 385.576 151.539 385.628 151.602C387.157 153.448 388.386 155.183 389.591 157.289C390.277 158.485 391.095 159.579 391.904 160.66C392.263 161.139 392.62 161.616 392.963 162.099C393.602 163 394.117 164.008 394.634 165.022C395.007 165.752 395.381 166.484 395.804 167.182C396.688 168.641 397.566 170.11 398.445 171.58C399.873 173.968 401.3 176.356 402.749 178.695C403.851 180.473 404.722 182.475 405.594 184.499C405.803 184.984 406.137 185.622 406.504 186.318V186.319C407.353 187.932 408.368 189.863 408.368 190.951C408.318 191.207 408.456 191.892 408.6 192.61C408.885 194.034 409.196 195.583 408.114 194.143C408.041 194.267 407.967 194.391 407.894 194.514L407.787 194.696C407.715 194.816 407.643 194.937 407.571 195.057C407.493 195.19 407.414 195.322 407.335 195.454C407.78 195.251 408.224 195.049 408.669 194.846C407.818 195.685 408.505 196.063 409.144 196.414C409.518 196.62 409.876 196.816 409.896 197.091C409.794 197.199 409.691 197.307 409.588 197.414L409.222 197.799C408.838 198.66 408.339 198.771 407.725 198.134C407.443 198.153 407.255 198.093 407.078 198.036C406.829 197.955 406.599 197.881 406.158 198.042C406.472 198.574 406.825 198.729 407.153 198.872C407.58 199.059 407.966 199.228 408.172 200.183C408.431 201.383 407.822 201.824 407.015 202.41C406.798 202.567 406.567 202.734 406.334 202.93V202.929L406.305 202.924C406.365 201.984 405.944 201.293 405.185 200.855V202.701C405.394 202.742 405.602 202.784 405.811 202.825L405.816 202.826L406.305 202.924C406.305 202.934 406.304 202.946 406.303 202.957L406.334 202.93C406.156 203.674 405.633 203.537 405.008 203.374C404.898 203.345 404.786 203.316 404.671 203.29C403.323 202.988 401.867 202.475 400.488 201.989C400.056 201.836 399.631 201.687 399.22 201.547C395.493 200.282 391.738 199.216 387.885 198.351C381.343 196.882 374.841 196.558 368.286 196.231H368.285C366.031 196.118 363.771 196.005 361.501 195.846C361.512 195.793 361.523 195.743 361.534 195.696C361.646 195.191 361.691 194.986 361.663 194.793C361.644 194.661 361.59 194.536 361.5 194.323C361.487 194.293 361.474 194.26 361.459 194.226C361.599 194.559 361.348 194.588 361.093 194.616C360.705 194.66 360.311 194.705 361.286 195.825C358.74 196.279 356.066 196.241 353.409 196.204C351.766 196.181 350.128 196.158 348.531 196.252C348.574 196.148 348.629 196.04 348.684 195.932C348.881 195.55 349.08 195.162 348.754 194.895C347.336 197.127 343.538 197.074 340.296 197.029C339.014 197.011 337.818 196.995 336.891 197.121C335.772 197.274 334.661 197.508 333.55 197.743C332.755 197.911 331.96 198.079 331.162 198.216C331.028 198.24 330.894 198.262 330.76 198.285C329.955 198.422 329.145 198.559 328.357 198.791C328.069 198.875 327.716 199.049 327.344 199.232C326.623 199.587 325.83 199.977 325.301 199.821C326.112 198.043 325.717 198.557 325.334 199.054C325.163 199.276 324.994 199.495 324.937 199.504C324.826 199.522 324.7 199.545 324.561 199.569C324.005 199.667 323.262 199.798 322.621 199.798C322.997 198.154 323.484 196.564 323.971 194.975C324.665 192.709 325.357 190.446 325.728 188.033C325.776 187.722 325.834 187.388 325.895 187.038V187.037C326.334 184.505 326.919 181.13 324.876 179.536C323.863 178.746 322.337 178.448 321.012 178.189H321.012C320.67 178.123 320.341 178.059 320.038 177.989C319.535 177.874 318.914 177.796 318.256 177.713C316.799 177.53 315.158 177.324 314.189 176.639C313.776 176.347 313.485 176.063 313.206 175.792C312.745 175.341 312.317 174.924 311.419 174.553C311.091 174.417 310.797 174.282 310.525 174.157C309.421 173.647 308.662 173.297 307.316 173.741C307.425 173.592 307.541 173.45 307.654 173.312C308.245 172.587 308.74 171.981 307.615 171.182C307.397 171.028 307.094 171.018 306.798 171.008C306.349 170.993 305.914 170.978 305.798 170.467C305.07 171.027 305.002 171.508 304.913 172.137C304.88 172.367 304.845 172.616 304.774 172.896C304.798 173.339 304.905 173.761 305.096 174.162L304.423 174.457L303.518 174.854C303.718 174.27 303.449 174.243 303.157 174.213C302.96 174.193 302.754 174.172 302.675 173.978C302.46 173.447 302.498 172.708 302.533 172.044C302.545 171.81 302.557 171.586 302.557 171.383C301.472 171.756 300.338 172.217 299.864 173.445C298.813 172.763 298.925 172.584 299.355 171.897C299.468 171.717 299.603 171.501 299.744 171.232C298.63 170.945 298.394 171.57 298.224 172.574C297.802 172.432 297.379 172.291 296.957 172.149L296.944 172.144L296.459 171.981C297.785 171.971 298.104 170.844 298.135 169.619C297.913 169.698 297.692 169.777 297.469 169.855L297.462 169.858C297.171 169.961 296.879 170.064 296.587 170.167L296.27 171.945C295.531 172.626 293.717 171.569 292.878 171.081L292.877 171.08C292.794 171.032 292.721 170.989 292.658 170.954L292.444 170.833C290.216 169.579 289.404 169.122 289.73 166.15C289.846 165.092 290.02 164.032 290.194 162.97C290.443 161.454 290.693 159.936 290.774 158.416C290.91 155.885 290.686 153.199 290.473 150.638C290.445 150.296 290.416 149.957 290.389 149.62C290.224 147.573 290.021 145.536 289.818 143.502V143.502C289.472 140.037 289.127 136.577 288.968 133.076C288.931 132.27 288.894 131.465 288.856 130.659L288.856 130.658C288.753 128.455 288.65 126.252 288.571 124.048C288.556 123.653 288.524 123.252 288.492 122.856C288.33 120.852 288.179 118.988 290.469 118.81C290.133 117.651 291.138 116.312 292.174 115.677C292.536 114.779 292.932 114.698 293.363 115.437C293.737 115.565 294.084 115.505 294.406 115.256C295.329 115.028 296.365 114.068 297.34 113.164C297.96 112.589 298.556 112.037 299.083 111.71C299.444 111.487 299.92 111.235 300.442 110.96H300.442C301.842 110.222 303.568 109.311 304.26 108.3C304.773 107.549 304.565 107.266 304.332 106.946C304.147 106.694 303.947 106.42 304.07 105.878C304.429 104.303 305.675 106.322 306.008 106.86C306.03 106.896 306.049 106.926 306.062 106.947C306.211 106.785 306.494 106.576 306.809 106.344C307.481 105.85 308.302 105.246 308.287 104.741L306.979 104.488C307.119 104.4 307.309 104.261 307.521 104.105C308.033 103.73 308.676 103.259 309.067 103.175C309.268 103.133 309.411 103.087 309.517 103.053C309.648 103.011 309.725 102.986 309.791 103.005C309.886 103.031 309.96 103.147 310.139 103.427C310.21 103.539 310.298 103.677 310.411 103.845C310.485 103.72 310.588 103.516 310.707 103.28V103.279C311.014 102.675 311.424 101.863 311.712 101.651C311.824 101.568 312.262 101.502 312.652 101.443C312.926 101.401 313.176 101.363 313.274 101.325C313.96 101.062 314.226 100.622 314.483 100.198C314.688 99.8588 314.888 99.5293 315.291 99.3084C315.527 99.1799 315.792 99.2255 316.043 99.2694C316.262 99.3078 316.471 99.3438 316.643 99.2622C316.953 99.1151 317.1 98.7807 317.248 98.4464C317.382 98.1433 317.516 97.8401 317.77 97.675C318.02 97.5124 318.478 97.5106 318.934 97.5088C319.321 97.5076 319.707 97.5058 319.961 97.4049C320.574 97.1612 320.759 96.9289 321.019 96.603C321.148 96.4415 321.295 96.2572 321.522 96.0363C322.071 95.5027 322.595 95.319 323.144 95.1263C323.553 94.9828 323.975 94.8346 324.432 94.5326C324.975 94.1743 325.211 93.595 325.429 93.0608C325.655 92.5049 325.862 91.9977 326.375 91.8368C326.953 91.6561 327.345 91.8098 327.663 91.9341C328.084 92.0985 328.374 92.212 328.79 91.434C328.856 91.311 328.775 91.1633 328.686 90.9988C328.551 90.7533 328.397 90.4712 328.677 90.1765C329.176 89.6506 329.422 90.1254 329.651 90.5684C329.685 90.6357 329.72 90.7023 329.755 90.7647L329.757 90.7611L329.759 90.7575C330.062 90.1362 330.364 89.515 330.666 88.8937C331.559 89.4261 331.677 89.213 331.888 88.8306C332.023 88.5875 332.195 88.276 332.628 88.0437C332.866 87.9164 333.083 87.9711 333.305 88.0269C333.545 88.0869 333.791 88.1487 334.072 87.9819C334.311 87.8414 334.431 87.6013 334.551 87.3636C334.632 87.2033 334.712 87.0442 334.826 86.9164C334.993 86.7315 335.137 86.5256 335.281 86.3203C335.612 85.8485 335.94 85.3803 336.534 85.1774C336.226 85.2818 338.752 85.2026 338.526 85.085C338.281 84.6924 338.035 84.2998 337.789 83.9072C338.056 83.9072 338.317 83.9132 338.573 83.9192H338.574C339.583 83.9414 340.524 83.9631 341.544 83.6179L341.565 83.6113C342.018 83.4582 342.711 83.2253 343.081 82.9168L343.112 82.8916C343.57 82.5104 343.77 82.3441 343.853 82.125C343.917 81.9545 343.91 81.7523 343.898 81.3933C343.891 81.2054 343.883 80.9749 343.883 80.6832C345.311 81.6724 347.129 81.3267 348.538 80.1796C348.853 79.9232 349.12 79.6453 349.385 79.3686C349.739 78.9988 350.091 78.632 350.552 78.3223C350.899 78.1272 351.251 77.9447 351.609 77.7755C352.057 77.2712 352.505 77.2664 352.954 77.7617C353.402 77.6308 353.531 77.5287 353.74 77.3625C353.828 77.2928 353.93 77.2118 354.075 77.1128C354.216 76.809 354.366 76.5107 354.527 76.2184C355.056 76.1583 355.576 76.0545 356.091 75.9068C356.668 75.7381 357.18 75.4962 357.66 75.2693C358.837 74.7129 359.826 74.2459 361.142 75.1577L361.287 74.8365L361.292 74.8251C361.479 74.4103 361.666 73.9956 361.851 73.5808C362.41 74.5298 362.843 74.1648 363.42 73.678C363.658 73.4775 363.919 73.2566 364.224 73.0981C364.447 72.9823 364.705 72.9109 364.957 72.8412C365.198 72.774 365.434 72.7086 365.628 72.6065C365.851 72.6636 366.075 72.7212 366.297 72.7788C366.487 72.1425 366.675 71.5062 366.864 70.8699C366.964 70.9126 367.142 71.005 367.359 71.1173C367.966 71.4318 368.875 71.9024 369.21 71.8676C369.566 71.831 369.962 71.454 370.35 71.0836C370.669 70.7787 370.984 70.478 371.268 70.3759C371.817 70.1796 371.941 70.2427 372.121 70.3351C372.256 70.4053 372.424 70.4912 372.83 70.4942C372.925 70.4948 373.013 70.4978 373.097 70.5002C373.651 70.5158 373.981 70.5254 374.527 69.9479C372.766 69.4503 374.311 69.1712 375.398 68.9743C375.621 68.9341 375.824 68.8975 375.976 68.8626C376.362 68.7756 376.696 68.7378 376.998 68.7042C377.785 68.6159 378.354 68.5523 379.053 67.6867H378.049C378.783 66.9598 378.79 66.9616 379.169 67.0504C379.302 67.081 379.48 67.1231 379.75 67.1477C379.823 67.1543 379.95 67.2011 380.103 67.2581C380.642 67.458 381.509 67.7792 381.511 66.892C382.86 67.7569 382.875 67.7587 384.265 67.3686C384.517 67.2977 384.754 67.1615 384.992 67.0246C385.335 66.8271 385.682 66.6278 386.081 66.62C386.396 66.614 386.667 66.6849 386.93 66.7527C387.218 66.8277 387.495 66.8992 387.804 66.8625C388.12 66.8259 389.147 66.4165 389.655 66.2136C389.713 66.1902 389.764 66.1698 389.807 66.153C390.129 66.0252 390.398 65.8271 390.662 65.632C390.94 65.4267 391.212 65.225 391.536 65.1139C391.907 64.9867 392.332 65.0077 392.758 65.0287C393.133 65.0473 393.508 65.0659 393.85 64.9843C394.559 64.8144 395.174 64.5491 395.761 64.2952C396.972 63.7711 398.069 63.2969 399.655 63.8138C399.9 61.5844 402.388 62.0039 403.825 62.2465L403.947 62.2669C404.21 62.3113 404.439 62.3743 404.652 62.4337C405.236 62.5952 405.704 62.7255 406.451 62.3407C406.811 62.1552 407.105 61.9223 407.397 61.6906C407.777 61.3887 408.154 61.0885 408.676 60.8958C409.271 60.6761 410.04 60.5069 410.709 60.3592C410.837 60.331 410.96 60.304 411.078 60.277C411.535 60.1197 412.003 60.0693 412.48 60.1263C412.989 60.2043 413.411 60.4558 413.745 60.8802C413.737 60.9036 413.744 60.9163 413.771 60.9139C413.763 60.9024 413.754 60.8916 413.745 60.8802C413.818 60.693 414.932 59.7937 414.804 59.9048C415.066 59.6773 415.283 59.5488 415.475 59.4354C415.893 59.1881 416.187 59.014 416.537 58.0464C416.241 57.9785 415.943 57.9101 415.646 57.8417C415.349 57.7738 415.052 57.7054 414.755 57.637C414.86 57.6292 414.963 57.6214 415.062 57.613C415.832 57.5499 416.456 57.4995 417.178 57.8429C417.418 57.9569 417.726 58.2787 418.046 58.6112C418.478 59.0626 418.93 59.5338 419.256 59.5344C420.278 59.5356 420.635 57.9683 420.534 57.1526C421.391 59.3261 422.123 59.6881 424.049 58.577C424.162 58.5116 424.275 58.4467 424.389 58.3813L424.403 58.3729C424.512 58.3105 424.62 58.2481 424.728 58.185C425.187 57.6622 425.642 57.6718 426.096 58.2144C426.365 58.3741 426.633 58.5332 426.903 58.6929L427.107 58.3231C427.363 57.8603 427.618 57.3975 427.874 56.9341C428.561 57.9641 429.215 58.0145 430.335 57.7738C430.716 57.6922 431.295 57.2804 431.852 56.8836C432.425 56.4755 432.975 56.0841 433.264 56.0841C433.422 56.0841 433.6 56.2834 433.803 56.5103C434.026 56.7594 434.279 57.0421 434.567 57.1315C435.479 57.4161 436.896 56.7006 437.221 55.7509C437.393 56.1471 437.566 56.5439 437.738 56.9407C437.846 56.832 437.953 56.7228 438.06 56.6141C438.384 56.2852 438.708 55.9556 439.029 55.6243C439.144 56.7054 439.903 56.6885 440.564 56.6741C441.051 56.6633 441.485 56.6537 441.57 57.0853C441.67 57.5908 440.315 58.6875 439.507 59.3405C439.293 59.514 439.117 59.6569 439.017 59.7481C440.294 60.5861 441.864 59.1226 443.019 58.0464C443.253 57.8285 443.47 57.6262 443.664 57.4623C444.257 58.1628 444.457 58.5308 443.913 59.3321C443.413 60.0681 443.185 59.9144 442.92 59.7355C442.676 59.5704 442.401 59.3844 441.853 59.8568C442.231 60.5495 442.573 60.3754 443.001 60.1575C443.112 60.1011 443.228 60.0423 443.351 59.9942C443.198 60.9709 443.334 61.0177 443.566 61.0969C443.732 61.154 443.947 61.2278 444.139 61.6696C444.422 62.3209 444.466 62.8437 444.518 63.4752C444.535 63.6805 444.553 63.8972 444.58 64.1331ZM268.613 148.582C269.127 148.534 269.273 148.793 269.404 149.026C269.514 149.223 269.614 149.4 269.918 149.357C270.175 149.321 270.383 149.024 270.595 148.72C270.78 148.456 270.968 148.185 271.197 148.077C272.237 147.582 273.748 147.505 275.134 147.436C275.785 147.403 276.408 147.371 276.942 147.299C277.823 147.179 278.652 146.898 279.472 146.621V146.62C280.243 146.359 281.005 146.101 281.797 145.98C282.471 145.878 282.962 146.011 283.6 146.214C283.646 146.229 283.691 146.242 283.734 146.256C284.33 146.445 284.624 146.538 284.801 146.748C284.974 146.951 285.036 147.265 285.16 147.884L285.165 147.909C285.817 151.181 285.313 154.661 284.81 158.139C284.151 162.694 283.492 167.245 285.432 171.319C275.43 171.23 265.407 171.448 255.462 172.723C255.462 171.766 255.469 170.81 255.475 169.854C255.498 166.698 255.52 163.546 255.301 160.393C255.2 158.95 255.062 157.512 254.923 156.073V156.072C254.883 155.652 254.842 155.23 254.803 154.809C254.595 152.59 254.644 152.579 256.126 152.247C256.22 152.226 256.32 152.204 256.427 152.18C256.955 152.059 257.292 151.8 257.646 151.527C257.917 151.318 258.198 151.1 258.584 150.93C259.033 150.733 259.315 150.831 259.652 150.947C259.817 151.004 259.995 151.066 260.213 151.099C261.063 151.23 261.308 151.154 261.783 151.008C261.968 150.951 262.186 150.884 262.488 150.814C263.052 150.683 263.595 150.596 264.121 150.511C265.758 150.247 267.225 150.01 268.613 148.582ZM444.439 81.3447C444.294 81.2528 444.15 81.1616 444.006 81.0697C442.297 85.0105 441.176 89.1176 440.041 93.2787C439.876 93.8849 439.71 94.4924 439.543 95.1011C438.859 97.5832 438.178 100.066 437.499 102.55C437.373 103.007 437.222 103.48 437.067 103.964C436.552 105.571 436.001 107.29 436.281 108.862C438.441 105.24 440.496 101.544 442.448 97.7855C443.399 95.9529 444.327 94.1058 445.235 92.2468C445.352 92.0061 445.498 91.7498 445.649 91.4856C445.976 90.9118 446.326 90.2995 446.453 89.716C446.615 88.9675 446.78 88.746 446.734 88.611C446.69 88.4855 446.464 88.4351 445.884 88.1073C446.347 87.5359 446.648 87.6937 446.899 87.8252C447.043 87.8996 447.169 87.9663 447.301 87.8834C447.623 87.6799 448.061 87.0485 448.409 86.5484C448.552 86.3425 448.68 86.1582 448.777 86.0364C448.508 85.9529 448.063 85.8623 447.546 85.7567C446.216 85.4847 444.412 85.1168 443.916 84.5255C443.124 83.5801 443.971 82.7559 444.802 81.9473C444.879 81.8717 444.957 81.7967 445.033 81.721C444.835 81.5956 444.637 81.4701 444.439 81.3447Z" fill="#FF5678"/>
<path fill-rule="evenodd" clip-rule="evenodd" d="M218.743 241.138C218.509 242.448 217.924 243.065 218.537 244.269C219.057 245.291 220.549 245.961 221.55 245.702L218.743 241.138ZM191.621 194.529L186.683 196.372C188.033 197.813 189.319 199.328 190.807 200.608L191.621 194.529ZM273.072 199.247C270.717 197.956 268.079 197.81 265.498 197.644C265.89 199.951 266.283 202.258 266.676 204.565C268.808 202.793 270.941 201.02 273.072 199.247ZM216.521 377.825C216.051 376.919 212.846 369.921 212.179 370.28C211.826 370.471 211.798 374.367 211.746 374.921C211.563 376.892 211.379 378.863 211.195 380.834C213.091 380.105 215.116 379.501 216.521 377.825ZM194.124 321.247C194.609 322.793 195.094 324.34 195.579 325.887C195.81 326.623 195.945 327.707 196.353 328.356C196.883 329.198 196.483 329.693 197.191 328.772C197.951 327.782 198.178 325.142 198.508 323.929C199.009 322.087 199.51 320.246 200.011 318.404C197.65 318.383 196.218 320.499 194.124 321.247ZM144.506 230.162C141.603 232.322 138.664 234.464 136.138 237.149C138.36 236.998 141.454 238.662 143.547 237.88C144.513 238.105 144.833 237.706 144.506 236.682V234.554V230.162ZM187.555 245.44V258.05C190.266 255.536 193.119 253.201 195.727 250.557C193.003 248.851 190.28 247.146 187.555 245.44ZM284.462 278.113C283.606 283.727 283.559 289.504 283.324 295.185C283.283 296.194 282.926 297.712 283.543 298.595C284.163 299.48 285.927 299.971 286.824 300.444C289.347 301.775 291.854 303.144 294.37 304.492C291.067 295.699 287.764 286.906 284.462 278.113ZM348.524 243.59C354.749 240.26 360.974 236.93 367.199 233.599C361.096 230.786 354.992 227.975 348.889 225.162C348.767 231.305 348.645 237.448 348.524 243.59ZM284.449 259.27C285.586 259.359 285.766 254.642 285.954 253.395C286.313 251.027 286.68 248.662 287.057 246.297C287.811 241.571 288.603 236.851 289.437 232.141C291.105 222.722 292.944 213.338 294.982 204.005C292.792 203.575 290.779 203.266 288.64 202.572C286.912 202.012 284.854 202.317 283.311 201.151C283.111 205.524 284.114 210.173 284.485 214.546C284.916 219.606 285.147 224.639 285.109 229.721C285.034 239.571 284.69 249.424 284.449 259.27ZM141.168 392.721C142.247 392.409 140.778 376.314 140.712 373.992C140.525 367.272 140.488 360.547 140.599 353.826C134.786 357.792 128.839 361.445 122.699 364.74C124.277 366.968 125.756 369.37 127.502 371.444C129.301 373.579 131.365 375.329 133.033 377.628C136.389 382.259 138.689 387.516 141.168 392.721ZM281.032 297.508C281.302 292.666 281.552 287.835 282.001 283.009C282.193 280.955 284.017 270.04 281.096 270.296C279.435 270.442 276.521 273.088 274.998 274.015C272.986 275.24 270.971 276.461 268.949 277.667C264.959 280.046 260.943 282.373 256.939 284.724C264.97 288.986 273.001 293.247 281.032 297.508ZM263.692 196.843C260.366 196.573 257.151 196.304 253.869 195.63C252.1 195.266 250.331 195.316 248.552 195.071C247.278 194.895 244.788 193.756 243.601 194.129C242.109 194.597 241.568 202.731 241.363 204.773C241.032 208.061 240.809 212.051 242.159 215.14C244.76 221.094 251.769 216.446 255.178 213.949C258.101 211.807 261.412 209.638 264.004 207.038C266.3 204.735 264.239 199.819 263.692 196.843ZM280.943 261.597C283.449 260.494 283.409 259.108 283.519 256.255C283.651 252.787 283.728 249.316 283.819 245.847C283.981 239.666 284.135 233.481 284.084 227.296C284.035 221.254 283.763 215.222 283.128 209.217C282.903 207.094 283.126 203.468 282.098 201.657C281.16 200.005 278.248 199.988 276.659 200.09C274.868 200.204 273.417 202.056 272.095 203.227C270.63 204.524 267.622 206.35 267.382 208.284C267.112 210.444 268.203 213.526 268.625 215.62C270.17 223.266 272.05 230.837 274.03 238.361C276.084 246.166 278.165 254.051 280.943 261.597ZM217.268 243.296C217.43 241.578 218.017 240.143 217.223 238.507C216.541 237.1 215.43 235.686 214.596 234.354C212.208 230.539 209.529 226.885 206.928 223.24C204.545 219.902 202.104 216.599 199.606 213.362C198.215 211.559 196.781 209.795 195.356 208.025C194.312 206.729 193.323 204.907 191.846 204.229C190.758 211.671 189.859 219.145 189.157 226.641C188.819 230.265 188.527 233.895 188.281 237.527C188.212 238.553 187.481 242.016 187.948 242.971C188.439 243.974 191.443 245.316 192.362 245.931C194.932 247.65 196.929 250.24 199.374 247.414C201.056 245.468 202.412 242.725 204.292 241.026C205.272 240.142 206.195 240.183 207.294 239.658C208.572 239.048 208.613 238.46 210.14 239.29C212.713 240.688 214.276 242.755 217.268 243.296ZM88.4564 281.584C88.4564 286.736 88.1326 290.972 91.3415 295.143C94.1455 298.787 97.0593 299.631 101.003 301.069C103.326 301.915 103.488 301.135 105.37 299.705C107.159 298.347 109.106 297.258 110.87 295.857C114.672 292.838 118.471 289.723 122.166 286.547C123.408 285.479 123.224 285.844 123.036 284.562C122.863 283.395 122.093 281.908 121.672 280.798C120.911 278.789 120.015 276.845 119.117 274.904C118.098 272.702 117.211 270.311 115.946 268.258C115.421 267.406 114.797 266.635 114.185 265.858C112.895 264.223 112.94 264.283 111.398 265.62C108.141 268.443 105.111 271.499 101.445 273.706C97.1084 276.319 92.7821 278.948 88.4564 281.584ZM186.658 241.675C187.128 234.279 187.659 226.923 188.474 219.56C188.892 215.78 189.379 212.009 189.853 208.237C190.046 206.7 190.791 204.122 190.376 202.63C189.968 201.161 188.169 199.763 187.182 198.701C186.917 198.415 186.101 197.216 185.75 197.162C185.374 197.105 183.961 198.232 183.553 198.486C182.112 199.386 180.696 200.332 179.301 201.316C176.674 203.171 174.128 205.163 171.637 207.228C166.412 211.559 161.43 216.22 156.317 220.702C161.002 225.171 166.768 228.641 172.006 232.26C175.103 234.4 178.216 236.517 181.369 238.557C182.968 239.591 184.822 241.171 186.658 241.675ZM122.616 373.94C118.833 376.662 115.221 379.536 110.942 381.283C106.683 383.022 102.474 383.691 98.072 384.725C95.852 385.247 93.7655 385.817 91.4998 386.182C90.2301 386.386 88.265 386.307 87.1073 386.891C86.0765 386.652 85.7091 387.034 86.0064 388.039C86.0175 388.351 86.0285 388.663 86.0395 388.975C86.3313 393.317 88.8954 398.542 91.1319 402.071C92.4374 404.133 94.1009 406.05 95.7538 407.783C97.6202 409.739 98.6963 411.118 101.298 410.299C105.683 408.917 109.553 406.136 113.998 404.91C117.514 403.94 120.435 401.907 123.864 400.854C128.092 399.557 132.277 398.078 136.564 396.993C134.649 392.97 132.937 388.782 130.485 385.097C127.971 381.315 125.198 377.681 122.616 373.94ZM145.818 238.568C153.729 240.282 162.304 241.869 169.385 246.314C172.148 248.048 175.651 250.73 176.46 254.318C177.427 258.606 173.624 261.262 170.447 262.601C166.633 264.208 162.481 264.823 158.439 265.33C156.299 265.598 154.15 265.745 152.001 265.878C150.261 265.986 147.311 265.57 145.721 266.32C144.725 266.104 144.379 266.543 144.685 267.639C144.666 268.032 144.648 268.426 144.63 268.819L144.465 272.354C144.355 274.709 144.245 277.064 144.135 279.418C143.896 284.547 143.657 289.676 143.418 294.805C147.562 292.01 150.901 288.01 154.951 285.029C156.877 283.611 158.788 282.191 160.706 280.779C161.51 280.187 162.002 279.357 162.793 278.805C163.843 278.073 164.773 277.633 165.758 276.675C169.779 272.761 174.25 269.378 178.514 265.785C180.451 264.152 182.572 262.652 184.415 260.901C186.346 259.066 186.079 257.556 186.031 254.919C185.982 252.127 186.923 248.661 186.486 245.968C186.853 245.055 186.571 244.486 185.642 244.263C185.021 243.831 184.4 243.399 183.779 242.966C182.541 242.104 181.303 241.242 180.065 240.381C175.139 236.953 170.214 233.524 165.288 230.096C162.827 228.383 160.367 226.671 157.906 224.958C157.219 224.48 154.977 222.32 154.206 222.383C153.42 222.448 152.055 224.119 151.466 224.651C150.561 225.466 149.683 226.324 148.706 227.038C148.219 227.405 147.71 227.733 147.181 228.021C146.334 228.11 146.04 228.616 146.298 229.539C145.554 232.135 145.963 235.842 145.818 238.568ZM255.526 360.931C253.735 351.816 251.424 341.022 244.437 334.822C237.35 328.534 226.989 330.964 221.446 338.348C218.669 342.047 216.948 346.42 215.67 350.952C214.357 355.602 212.423 361.662 212.777 366.581C212.932 368.737 214.629 371.055 215.6 372.936C216.601 374.879 217.265 377.665 219.625 376.992C223.283 375.948 227.004 373.552 230.427 371.837C233.89 370.101 237.535 368.674 241.126 366.998C243.51 365.886 245.985 365.039 248.362 363.911C250.617 362.842 253.592 362.584 255.526 360.931ZM361.384 306.641C366.381 308.587 368.978 305.471 372.495 301.963C375.825 298.64 379.434 295.444 382.501 291.833C385.665 288.109 388.165 283.707 390.598 279.406C393.057 275.059 396.38 270.363 397.894 265.522C398.664 263.059 398.993 260.33 399.478 257.784C399.595 257.171 400.379 254.891 400.13 254.375C399.787 253.666 397.605 253.591 397.006 253.488C392.238 252.667 387.185 252.627 382.403 253.36C373.15 254.779 365.411 260.427 362.486 270.303C359.058 281.88 360.705 294.747 361.384 306.641ZM328.985 206.226C328.908 208.231 333.322 208.788 334.467 209.255C337.111 210.335 339.74 211.474 342.308 212.752C347.595 215.382 353.234 217.096 358.297 220.276C369.211 227.132 381.06 231.965 392.086 238.522C393.804 239.544 397.162 242.006 399.124 241.798C400.167 241.687 399.39 242.601 400.067 240.796C400.31 240.147 400.391 239.302 400.527 238.607C400.936 236.522 401.252 234.418 401.711 232.345C402.466 228.932 403.237 225.766 403.555 222.259C403.69 220.773 403.838 219.288 403.854 217.793C403.871 216.278 404.191 212.482 403.563 211.171C403.146 210.301 403.063 210.599 402.021 210.354C401.425 210.213 400.799 209.921 400.223 209.726C398.873 209.268 397.521 208.829 396.104 208.695C394.705 208.561 393.812 208.098 392.5 207.829C391.123 207.547 389.709 207.889 388.307 207.495C386.793 207.07 386.07 206.681 384.488 206.844C382.954 207.001 382.513 206.631 381.011 206.176C379.758 205.797 378.264 206.062 376.958 205.947C375.376 205.807 373.8 205.592 372.218 205.456C365.103 204.843 357.903 205.751 350.772 205.679C346.894 205.64 343.1 206.263 339.227 206.071C335.843 205.903 332.344 205.942 328.985 206.226ZM347.494 247.038C344.033 248.473 340.824 250.803 337.615 252.81C333.915 255.124 330.373 257.582 326.949 260.357C321.191 265.024 314.472 270.619 312.957 278.762C311.402 287.119 318.07 293.966 324.322 297.385C331.452 301.284 339.746 303.3 347.556 304.79C346.721 285.551 346.917 266.282 347.494 247.038ZM243.952 292.33C241.852 292.961 240.075 294.314 238.127 295.314C236.382 296.21 234.694 296.886 233.064 298.04C230.408 299.921 227.33 301.531 224.553 302.985C217.683 306.583 211.013 311.05 204.212 315.037C202.409 316.094 201.819 316.762 201.208 318.937C200.545 321.3 199.92 323.679 199.282 326.05C198.686 328.261 197.735 330.626 197.985 332.96C198.204 334.991 199.169 336.906 199.897 338.759C201.729 343.421 203.715 348.008 205.767 352.558C207.609 356.644 209.289 360.978 211.653 364.734C213.49 354.305 215.139 342.619 222.261 334.672C229.378 326.731 240.731 326.619 247.589 334.816C250.847 338.71 252.83 343.614 254.388 348.542C255.207 351.131 255.757 353.769 256.283 356.443C256.846 359.299 256.708 360.815 259.603 359.949C261.903 359.262 264.34 358.713 266.595 357.929C267.764 357.523 268.904 357.066 268.957 356.06C269.025 354.791 267.454 352.191 266.99 350.997C264.595 344.831 262.199 338.665 259.803 332.5C257.201 325.805 254.599 319.11 251.996 312.416C250.698 309.075 249.399 305.736 248.1 302.396C246.916 299.351 245.929 294.83 243.952 292.33ZM347.689 240.266C347.728 237.222 347.774 234.178 347.81 231.134C347.832 229.32 348.575 225.812 347.124 224.516C346.223 223.713 343.553 223.097 342.415 222.547C340.169 221.463 337.736 220.979 335.477 219.902C326.627 215.683 317.416 212.169 308.304 208.768C306.34 208.035 304.332 207.435 302.354 206.712C301.286 206.323 297.331 204.033 296.343 204.633C295.478 205.157 294.825 211.399 294.548 212.695C293.893 215.764 293.266 218.84 292.663 221.922C290.324 233.887 288.362 245.935 286.538 258.004C291.385 256.001 296.03 252.531 300.61 249.847C305.367 247.06 310.107 244.28 314.897 241.557C316.249 240.788 321.005 237.255 322.118 238.641C323.903 240.867 319.649 243.477 318.532 244.43C314.213 248.117 309.649 251.332 305.029 254.548C300.242 257.882 295.261 260.827 290.449 264.1C288.712 265.281 285.94 266.719 285.257 268.714C284.379 271.281 285.013 274.401 285.812 276.853C287.776 282.879 289.926 288.831 292.2 294.725C293.235 297.406 294.295 300.074 295.376 302.732C296.662 305.898 298.351 306.567 301.154 308.024C313.097 314.231 325.503 320.121 336.974 327.303C335.054 329.712 330.375 325.757 328.48 324.756C324.971 322.901 321.459 321.052 317.953 319.192C311.421 315.726 304.922 312.192 298.353 308.81C302.563 319.231 307.532 329.272 313.04 338.945C311.649 339.458 311.989 339.485 311.116 338.575C310.38 337.808 309.887 336.306 309.389 335.343C308.359 333.355 307.343 331.358 306.306 329.374C304.153 325.257 301.923 321.202 299.958 316.973C298.48 313.792 297.335 308.233 294.297 306.629C290.512 304.63 286.676 302.685 282.891 300.658C282.891 316.502 283.937 331.994 285.473 347.741C285.551 348.535 286.25 350.878 284.84 350.649C284.204 350.545 283.989 346.2 283.878 345.293C283.365 341.134 282.93 336.965 282.574 332.787C281.865 324.45 281.48 316.079 281.43 307.706C280.522 315.846 279.613 323.987 278.705 332.127L277.414 343.698C277.187 345.724 276.961 347.75 276.735 349.776C276.632 350.707 276.697 351.924 276.397 352.812C275.924 354.209 276.083 354.102 274.601 354.739C276.018 344.138 277.326 333.52 278.484 322.883C279.049 317.692 279.579 312.498 280.067 307.298C280.198 305.9 280.327 304.501 280.453 303.102C280.516 302.389 281.081 300.096 280.768 299.504C280.457 298.916 278.398 298.304 277.805 298.005C276.507 297.349 275.21 296.694 273.913 296.035C269.704 293.894 265.498 291.735 261.335 289.49C259.513 288.507 257.603 286.989 255.623 286.465C253.651 285.943 252.217 287.437 250.531 288.387C249.219 289.125 246.127 290.109 245.251 291.364C244.435 292.533 246.968 297.207 247.634 298.931C249.511 303.793 251.389 308.656 253.266 313.518C257.072 323.377 260.879 333.236 264.686 343.095C265.616 345.505 266.547 347.915 267.477 350.325C268.073 351.869 269.069 356.271 270.515 356.443C271.156 356.519 272.207 355.761 272.826 355.543C273.749 355.218 274.602 355.223 275.528 355.052C277.226 354.739 278.989 353.785 280.656 353.117C284.941 351.398 289.383 350.288 293.703 348.682C298.042 347.069 302.311 345.257 306.634 343.643C310.56 342.179 314.521 340.509 318.292 338.602C322.275 336.586 326.36 334.81 330.24 332.575C337.309 328.506 344.301 324.706 350.546 319.715C352.015 318.542 353.579 317.363 355.032 316.107C356.305 315.004 358.735 313.643 359.602 312.193C359.933 311.64 360.217 310.556 359.831 309.9C359.416 309.196 357.582 309.26 356.725 309.134C354.022 308.739 351.319 308.344 348.617 307.949C348.824 309.883 349.034 311.816 349.184 313.758C349.289 315.129 350.034 318.751 349.03 319.824C347.65 318.397 348.094 314.129 347.97 312.227C347.904 311.211 348.142 309.221 347.724 308.32C347.265 307.332 345.999 307.345 344.851 307.075C339.984 305.929 335.162 304.967 330.452 303.151C322.496 300.085 312.986 294.906 311.209 284.918C309.356 274.505 317.497 265.483 324.351 259.675C328.455 256.198 332.821 253.188 337.336 250.393C339.447 249.087 341.556 247.781 343.68 246.503C344.453 246.039 346.99 245.081 347.397 244.268C347.814 243.437 347.601 241.214 347.689 240.266ZM177.473 400.182C177.086 400.387 176.7 400.592 176.314 400.797C180.608 387.48 184.862 374.223 188.452 360.656C190.185 354.108 191.941 347.566 193.733 341.036C194.506 338.22 196.406 334.341 195.879 331.423C195.307 328.265 193.937 324.906 192.877 321.903C186.091 326.545 179.164 330.949 172.265 335.381C166.08 339.355 159.791 342.89 153.563 346.822C150.372 348.837 147.08 350.198 143.749 351.844C141.043 353.182 142.093 357.271 142.132 360.003C142.269 369.648 142.263 379.328 142.8 388.959C142.996 392.467 142.744 396.496 144.796 399.416C147.421 403.15 149.855 406.956 152.249 410.887C153.146 412.359 156.913 420.331 158.318 420.157C159.235 420.043 160.08 416.815 160.539 416.05C161.527 414.4 162.973 412.98 164.289 411.652C169.972 405.913 176.278 401.871 182.832 397.677C189.491 393.416 196.305 389.45 203.09 385.409C204.623 384.496 206.273 383.838 207.796 382.905C208.398 382.537 209.591 381.951 209.97 381.293C210.536 380.307 210.344 377.577 210.462 376.398C210.704 373.991 211.138 371.49 211.161 369.065C211.184 366.67 209.861 364.612 208.902 362.524C204.691 353.353 200.6 344.159 196.937 334.711C194.049 345.682 191.016 356.602 188.183 367.59C186.704 373.328 184.921 378.972 183.184 384.621C182.298 387.506 181.406 390.389 180.521 393.275C179.831 395.523 179.474 398.814 177.473 400.182ZM237.944 193.408C235.712 193.435 233.689 193.078 231.506 192.571C230.705 192.385 230.001 192.307 229.19 192.229C228.269 192.14 227.433 191.598 226.626 191.491C226.016 191.412 224.951 191.69 224.368 191.903C223.018 192.395 223.061 192.146 223.005 193.852C222.917 196.488 222.851 199.124 222.718 201.758C222.194 212.124 221.183 222.389 219.797 232.655C219.516 234.73 218.731 237.452 219.162 239.512C219.552 241.37 221.027 243.355 222.001 244.913C224.004 248.118 228.723 249.701 232.043 250.61C235.544 251.569 239.178 251.922 242.504 252.777C243.426 253.014 244.484 252.596 245.466 252.834C246.374 253.053 247.08 253.596 247.919 253.989C249.976 254.95 252.274 255.127 254.398 255.869C258.609 257.34 263.119 257.252 267.334 258.665C268.412 259.025 269.343 259.935 270.38 260.247C271.328 260.532 272.304 260.197 273.296 260.356C275.399 260.692 277.359 261.475 277.844 263.931C279.129 262.823 279.308 263.115 279.086 261.401C278.944 260.303 278.382 258.965 278.074 257.907C277.29 255.207 276.501 252.508 275.717 249.808C274.167 244.465 272.626 239.118 271.197 233.735C269.918 228.921 268.755 224.069 267.739 219.181C267.222 216.695 266.79 214.198 266.347 211.7C266.218 210.974 266.346 209.822 265.677 209.339C265.07 208.902 263.652 210.472 263.011 210.978C258.53 214.51 248.255 224.956 242.653 218.794C239.637 215.476 239.813 209.642 240.141 205.355C240.342 202.719 240.767 200.118 241.242 197.528C241.361 196.881 242.087 194.804 241.822 194.344C241.534 193.849 238.544 193.553 237.944 193.408ZM395.365 251.067C396.558 251.212 397.75 251.358 398.942 251.504C398.833 250.455 398.931 248.878 398.566 247.902C398.062 246.552 396.827 246.401 395.468 245.842C393.32 244.958 391.128 244.189 389.003 243.237C384.391 241.171 379.801 239.076 375.186 237.011C373.164 236.105 370.787 234.623 368.591 235.362C366.222 236.161 363.885 237.786 361.671 238.976C359.164 240.325 356.659 241.676 354.154 243.027C352.979 243.661 351.803 244.294 350.629 244.928C348.783 245.923 348.537 246.024 348.392 248.297C347.65 259.926 347.705 272.006 348.028 283.65C348.194 289.592 348.008 295.566 348.4 301.498C348.43 301.954 348.399 304.529 348.661 304.88C349.031 305.375 351.632 305.542 352.254 305.666C354.678 306.148 357.118 306.308 359.567 306.547C358.99 293.021 356.871 277.032 363.253 264.66C369.663 252.231 383.366 249.539 395.365 251.067ZM283.922 118.005C284.641 116.223 285.879 114.719 286.937 113.156C287.509 112.311 288.498 111.301 288.864 110.312C289.385 108.905 289.383 109.206 288.604 107.974C287.868 106.809 287.882 106.722 286.744 106.513C285.785 106.338 284.765 106.636 283.786 106.445C282.796 106.252 280.075 105.344 280.699 103.63C280.672 103.705 282.246 102.86 282.368 102.714C282.764 102.245 282.889 101.245 283.084 100.679C283.713 98.8624 283.933 97.6865 283.233 95.7524C282.186 92.8645 278.048 92.0097 275.473 92.9816C274.185 93.4666 273.451 94.4954 272.872 95.7884C272.504 96.6096 272.419 97.7963 271.943 98.5113C271.226 99.5875 271.182 99.4681 269.696 99.2778C267.804 99.0359 266.252 98.2447 264.458 97.6931C262.505 97.0916 261.235 98.315 259.529 99.3012C256.448 101.083 253.472 101.701 250.021 101.984C246.178 102.299 242.616 101.291 238.811 101.031C239.798 105.98 242.352 109.998 244.392 114.48C244.751 115.268 245.33 116.073 245.344 116.985C245.359 117.844 244.216 119.013 244.344 119.724C244.619 121.24 247.685 122.454 248.847 122.88C252.133 124.086 255.874 126.447 259.49 125.499C261.472 124.979 262.539 121.572 264.405 121.322C266.908 120.984 265.035 124.492 264.57 125.699C268.123 126.286 272.626 125.788 276.026 124.477C277.73 123.82 279.174 122.84 280.729 121.868C282.667 120.658 283.069 120.326 283.922 118.005ZM221.755 191.664C215.422 191.779 208.996 190.787 202.648 191.699C201.178 191.909 199.727 192.249 198.282 192.61C197.243 192.87 193.944 193.09 193.252 193.93C192.621 194.697 192.616 198.226 192.486 199.22C192.196 201.435 192.274 202.2 193.571 203.913C197.842 209.548 202.289 215.015 206.496 220.713C210.538 226.186 213.856 232.302 217.941 237.698C220.123 230.786 220.253 222.491 220.852 215.243C221.172 211.378 221.462 207.511 221.735 203.643C221.995 199.958 222.879 195.177 221.755 191.664ZM139.78 264.511C140.513 264.511 141.681 264.761 142.393 264.511C143.372 264.851 143.699 264.451 143.375 263.313C143.391 262.915 143.406 262.516 143.422 262.117C143.524 259.55 143.637 256.983 143.746 254.416C143.846 252.069 143.944 249.721 144.029 247.374C144.087 245.771 144.831 241.798 144.236 240.35C143.836 239.377 142.889 239.598 141.737 239.456C140.641 239.321 139.542 239.196 138.452 239.011C137.069 238.777 135.535 238.238 134.128 238.575C132.714 238.914 131.686 240.335 130.576 241.239C128.82 242.668 127.026 244.045 125.255 245.452C122.036 248.01 118.85 250.615 115.658 253.212C114.34 254.285 114.087 253.912 114.729 255.454C115.127 256.406 116.031 257.483 116.581 258.344C117.677 260.057 118.769 262.654 120.174 264.044C122.22 266.067 127.896 264.782 130.613 264.768C133.712 264.751 136.699 264.803 139.78 264.511ZM147.801 264.344C150.488 264.058 153.202 264.181 155.873 263.788C158.776 263.36 161.659 262.727 164.557 262.252C167.445 261.78 176.234 259.868 175.367 255.175C174.45 250.214 167.722 247.243 163.999 245.575C158.185 242.971 152.114 241.576 145.998 240.104C145.231 244.551 145.341 249.324 145.201 253.831C145.125 256.278 145.058 258.728 145.059 261.178C145.059 261.768 144.874 262.991 145.095 263.539C145.614 264.829 146.219 264.344 147.801 264.344ZM138.964 266.475H121.813C124.351 272.193 126.75 278.018 129.487 283.628C132.212 289.217 135.721 294.482 138.813 299.846C139.596 298.919 140.845 297.913 141.377 296.809C141.967 295.588 141.95 293.791 142.047 292.378C142.297 288.709 142.412 285.008 142.496 281.33C142.571 278.11 142.701 274.911 142.928 271.698C142.978 270.994 143.692 267.334 143.284 266.732C142.919 266.197 139.714 266.48 138.964 266.475ZM209.597 154.201C212.49 154.201 215.387 154.161 218.28 154.214C220.905 154.263 224.326 153.765 226.731 155.236C231.63 158.233 221.836 165.929 219.85 167.866C223.061 169.133 228.073 166.619 231.217 165.467C235.104 164.043 239.068 163.087 243.033 161.971C244.024 161.693 248.276 161.147 248.813 160.321C249.346 159.502 248.153 154.559 248.033 153.516C247.921 152.536 248.015 151.007 247.64 150.085C247.87 148.978 247.513 148.589 246.568 148.922C246.242 148.921 245.916 148.919 245.59 148.918C243.177 148.939 240.763 149.061 238.352 149.148C230.065 149.448 221.98 149.848 213.765 151.256C209.945 151.91 206.092 152.715 202.292 153.518C199.094 154.194 199.632 154.761 202.62 154.77C204.956 154.776 207.272 154.399 209.597 154.201ZM447.3 87.8835C447.792 87.2682 448.285 86.6523 448.777 86.0364C447.578 85.6637 446.378 85.2903 445.178 84.9175C443.903 84.5213 443.216 84.612 443.784 83.0609C444.494 81.1178 447.739 80.8951 449.299 80.8219C454.669 80.5692 460.311 82.4288 465.412 84.0669C467.901 84.8665 469.853 86.1037 471.959 87.749C472.879 88.4675 473.94 89.1422 474.745 90.0054C475.581 90.9022 475.929 92.0511 476.746 92.9503C478.087 94.4246 479.803 95.1587 480.461 97.2867C481.215 99.7292 480.314 102.525 479.198 104.655C478.065 106.817 476.382 108.451 475.015 110.415C473.93 111.974 471.665 116.231 475.205 115.738C477.077 115.477 479.505 112.002 480.852 110.618C482.783 108.633 484.683 106.602 486.728 104.753C488.541 103.114 490.63 101.433 493.056 101.145C495.611 100.842 496.888 102.622 498.134 104.787C499.309 106.829 499.498 108.823 500.324 110.913C500.723 111.921 501.23 112.483 501.464 113.581C501.825 115.271 501.862 117.114 502.046 118.837C502.335 121.542 502.607 123.67 502.125 126.321C501.674 128.802 501.551 131.437 501.171 133.961C500.741 136.819 500.383 139.691 499.959 142.551C499.6 144.973 498.233 148.424 499.574 150.677C502.794 156.09 506.657 148.121 507.674 145.143C509.462 139.911 510.372 134.192 511.95 128.853C512.795 125.997 513.532 123.115 514.016 120.158C514.417 117.713 514.22 114.735 515.451 112.557C516.408 110.865 518.11 109.581 519.978 110.097C522.315 110.744 523.213 114.421 523.901 116.656C525.716 122.552 525.048 127.862 524.309 133.875C523.967 136.659 523.641 139.447 523.053 142.185C522.657 144.032 521.015 147.771 523.456 148.775C526.917 150.2 530.585 139.394 531.571 136.954C534.154 130.563 535.143 124.224 536.207 117.377C536.451 115.802 536.638 114.194 537.004 112.646C537.322 111.299 538.273 109.938 538.359 108.591C538.444 107.243 537.624 106.302 538.465 104.979C539.164 103.877 540.428 103.81 541.569 103.801C544.251 103.778 546.816 105.06 549.311 105.989C551.63 106.854 555.067 108.752 557.571 108.141C549.716 99.4633 541.883 90.8836 532.516 84.1252C528.166 80.9864 523.813 77.97 519.112 75.4104C514.35 72.8179 508.893 71.0669 503.793 69.4984C501.019 68.6448 498.261 67.6777 495.522 66.6987C493.084 65.8271 490.629 65.662 488.242 64.6734C483.054 62.5262 477.258 61.6942 471.887 60.172C469.516 59.5003 467.118 58.924 464.741 58.3015C462.243 57.6472 458.733 56.5109 456.187 56.6214C454.013 56.7156 453.279 59.427 452.234 61.3131C450.715 64.0509 449.421 66.8956 448.227 69.8159C445.781 75.7994 443.199 81.981 441.45 88.2322C440.49 91.6646 439.541 95.1005 438.597 98.5383C437.781 101.514 435.739 105.808 436.281 108.862C440.304 102.115 444.049 95.1089 447.3 87.8835ZM260.033 148.801C257.9 148.907 255.765 149.012 253.631 149.118C255.759 156.729 255.462 164.834 255.462 172.723C265.406 171.448 275.43 171.23 285.432 171.319C283.595 167.46 284.307 162.455 284.831 158.323C285.137 155.904 285.308 153.575 285.264 151.135C285.222 148.846 285.828 146.921 283.6 146.214C281.832 145.652 280.715 146.588 279.031 147.014C277.014 147.525 274.817 147.587 272.764 147.865C268.49 148.443 264.369 148.782 260.033 148.801ZM202.734 163.624C209.143 161.69 215.953 162.403 222.393 160.932C220.928 159.477 218.168 160.339 216.223 160.46C214.011 160.597 211.801 160.698 209.589 160.815C207.432 160.929 201.449 160.752 200.671 163.738C201.358 163.701 202.046 163.662 202.734 163.624ZM437.217 55.7678C428.831 56.5685 420.049 56.4443 411.724 58.0368C402.19 59.8604 392.251 61.0045 383.006 64.2184C373.938 67.3716 364.69 69.5788 355.751 73.2813C347.061 76.8805 338.691 80.7096 330.507 85.5238C326.501 87.8799 322.604 90.3776 318.785 93.0836C315.057 95.7254 310.973 97.8912 307.361 100.691C304.145 103.184 301.371 105.471 298.567 108.525C295.57 111.79 292.654 115.144 289.655 118.404C287.151 121.124 288.736 127.774 288.895 131.393C289.115 136.412 289.495 141.359 290.06 146.344C290.598 151.095 291.151 156.201 290.44 160.941C290.142 162.934 289.112 166.377 289.604 168.366C289.997 169.959 292.608 171.127 293.94 171.646C295.569 172.282 297.233 172.014 298.905 172.822C300.772 173.725 302.346 174.851 304.329 175.326C306.773 175.911 309.521 176.404 312.032 176.422C314.355 176.438 316.685 177.257 319.001 177.761C322.768 178.582 326.445 178.838 326.211 183.782C325.94 189.487 323.86 194.382 322.621 199.798C324.296 199.798 325.464 199.914 326.997 199.268C328.788 198.514 330.698 198.313 332.579 197.988C336.735 197.268 340.787 197.038 344.971 196.579C352.636 195.737 360.433 195.838 368.103 195.927C371.987 195.971 376.199 196.298 380.029 196.956C383.958 197.631 388.028 198.053 391.835 199.348C395.048 200.44 398.365 201.185 401.641 202.15C403.118 202.584 404.887 202.937 406.283 203.424C408.305 204.129 409.385 205.633 411.72 205.598C411.063 200.892 409.52 196.526 408.589 191.859C407.617 186.985 405.678 182.673 403.538 178.075C402.583 176.024 401.876 173.847 400.956 171.779C399.932 169.478 398.493 167.572 397.257 165.42C394.728 161.02 392.029 156.787 389.545 152.355C387.376 148.486 384.899 144.777 382.524 141.042C379.914 136.935 376.287 133.836 373.325 130.069C372.075 128.477 370.885 126.999 369.484 125.538C368.194 124.194 366.364 121.218 364.388 121.078C363.253 120.998 361.287 121.693 360.203 122.066C358.199 122.757 356.073 123.207 354.003 123.815C351.738 124.481 349.512 125.347 347.243 125.98C346.335 126.232 345.257 126.112 344.396 126.399C343.496 126.699 342.777 127.36 341.792 127.663C336.935 129.162 332.108 130.865 327.215 132.23C322.178 133.636 317.063 134.832 312.182 136.824C311.251 137.204 310.215 138.102 309.5 137.511C308.966 137.071 308.622 135.826 308.763 135.1C309.231 132.682 312.785 131.809 314.495 130.838C319.08 128.237 323.636 126.402 328.563 124.636C330.99 123.766 333.409 122.838 335.87 122.087C337.927 121.46 340.068 120.399 342.172 120.078C344.043 119.792 345.371 118.99 347.228 118.28C349.964 117.234 352.777 116.375 355.558 115.481C360.309 113.953 365.346 113.31 370.208 112.286C381.471 109.912 393.166 108.723 404.659 108.87C410.454 108.945 416.515 108.76 422.242 109.798C423.623 110.047 426.526 109.999 427.478 111.348C427.989 112.072 427.712 113.149 427.843 113.934C428.065 115.258 428.729 115.875 429.304 117.082C430.527 110.553 431.931 104.163 433.51 97.7303C434.937 91.9083 436.258 85.9806 438.166 80.2402C440.184 74.1667 442.63 67.727 445.647 62.1685C446.268 61.0243 447.816 59.2067 447.949 57.9269C448.087 56.6063 446.386 55.5835 445.218 55.4364C442.597 55.1069 439.791 55.6711 437.217 55.7678ZM493.55 149.053C494.403 139.997 496.897 130.524 495.504 121.431C494.914 117.582 494.454 113.908 492.685 110.434C491.79 108.677 491.432 107.386 489.724 108.422C487.996 109.471 486.405 112.061 484.972 113.562C482.338 116.322 479.58 119.164 476.426 121.213C473.942 122.826 469.008 124.356 467.14 120.865C465.361 117.539 467.734 112.896 469.438 110.152C471.388 107.012 475.081 104.103 473.008 100.229C472.116 98.5617 470.833 98.1247 469.484 97.0304C468.316 96.0832 467.338 94.8562 466.17 93.8922C462.785 91.0979 459.073 89.901 455.166 88.3042C453.362 87.5665 453.124 86.8726 452.082 88.5588C450.95 90.3902 450.33 92.9569 449.512 94.9823C447.873 99.0395 446.124 102.884 444.011 106.667C441.878 110.484 439.988 114.472 437.972 118.366C437.211 119.835 436.496 121.328 435.597 122.706C435.107 123.457 434.501 124.125 434.103 124.947C433.515 126.161 433.777 127.268 433.411 128.477C431.83 133.693 429.525 126.411 429.084 124.709C428.583 122.772 427.375 121.263 426.591 119.457C425.944 117.965 425.503 115.748 423.941 115.046C422.662 114.471 421.013 115.26 419.707 115.337C417.308 115.479 414.891 115.267 412.481 115.43C410.228 115.583 407.98 115.818 405.728 115.968C403.473 116.119 401.221 115.704 398.996 115.962C395.004 116.426 390.922 116.351 386.938 116.994C382.263 117.746 377.636 118.549 372.948 119.176C374.037 121.418 376.295 122.391 378.081 123.99C379.676 125.42 380.94 127.07 382.547 128.431C384.178 129.811 385.147 131.853 386.497 133.512C387.819 135.137 389.044 136.5 390.202 138.318C395.794 147.098 401.562 155.553 406.175 165.042C408.51 169.845 410.739 174.983 412.334 180.136C414.045 185.663 414.884 191.59 415.901 197.304C416.407 200.153 416.672 202.557 416.118 205.421C415.972 206.103 415.82 206.784 415.663 207.463C415.177 208.276 415.357 208.803 416.204 209.045C416.699 209.83 417.375 210.125 417.418 211.199C417.451 212.016 417.034 212.962 416.388 213.422C415.141 214.311 415.141 213.111 413.855 213.377C413.373 213.661 412.891 213.944 412.41 214.227C412.155 213.806 411.893 213.389 411.625 212.979C410.805 212.131 410.153 212.208 409.082 212.001C409.627 218.825 408.758 224.917 407.378 231.573C406.714 234.773 405.577 237.906 405.003 241.112C404.363 244.694 405.762 246.326 407.928 248.715C407.378 249.027 406.415 249.366 405.962 249.832C405.241 250.576 405.425 250.667 405.425 251.831C405.427 253.962 405.051 256.063 404.743 258.158C404.174 262.039 403.654 266.055 402.426 269.77C400.196 276.519 396.592 283.528 392.92 289.472C390.865 292.799 388.805 296.578 386.229 299.449C383.644 302.329 381.081 305.236 378.502 308.125C373.427 313.812 367.88 317.74 361.799 321.998C359.391 323.685 356.854 325.532 354.783 327.632C352.679 329.766 349.88 331.259 347.364 332.809C346.242 333.5 345.443 334.494 344.231 335.061C343.093 335.594 342.298 335.768 341.343 336.466C338.974 338.2 336.415 339.682 333.807 340.989C330.626 342.584 327.495 344.439 324.228 345.799C322.739 346.419 321.339 347.095 319.897 347.821C318.337 348.605 316.654 349.12 315.053 349.956C313.701 350.663 312.331 351.073 310.955 351.651C309.831 352.123 308.948 352.886 307.801 353.38C305.42 354.403 303.253 354.954 300.94 356.161C297.866 357.764 294.224 358.512 290.987 359.666C287.372 360.954 283.622 362.237 279.912 363.15C278.334 363.539 276.989 364.048 275.464 364.637C274.471 365.02 273.332 365.23 272.232 365.595C269.191 366.604 266.152 367.576 263.096 368.434C257.123 370.11 251.022 372.123 245.231 374.399C242.194 375.592 239.113 377.028 236.2 378.547C232.907 380.264 229.358 381.255 226.053 382.955C219.668 386.238 213.304 389.617 206.993 393.064C203.678 394.875 200.411 396.74 197.175 398.708C196 399.423 194.716 399.718 193.55 400.418C192.024 401.335 190.772 402.68 189.21 403.588C183.187 407.089 177.04 410.387 171.508 414.816C168.613 417.134 165.502 419.508 163.001 422.331C162.175 423.262 160.744 424.704 160.595 426.055C160.375 428.054 160.581 426.215 161.217 427.448C162.098 427.564 162.297 427.933 161.816 428.552C161.595 428.843 161.311 428.991 160.965 428.997C159.852 429.242 157.771 427.959 156.877 427.422C155.328 426.493 154.506 425.318 153.511 423.758C151.35 420.374 149.241 416.959 147.016 413.622C145.014 410.621 143.055 407.318 140.778 404.562C139.234 402.694 139.118 403.509 137.4 404.563C136.122 405.346 134.638 405.681 133.314 406.418C128.268 409.232 122.721 411.309 117.545 413.27C116.367 413.716 115.738 414.425 114.703 415.041C113.383 415.827 111.712 416.211 110.301 416.769C106.415 418.307 102.547 419.904 98.688 421.522C95.7086 422.773 92.8455 423.758 90.5131 426.065C89.5848 426.983 88.4613 427.641 87.5028 428.57C86.3864 429.649 84.8769 431.407 83.4715 432.018L82.6155 432.746C82.0364 432.307 81.4567 431.87 80.876 431.433C80.3002 430.999 79.7238 430.567 79.1491 430.132C77.7057 429.04 76.2728 427.933 74.8382 426.827C71.5847 424.317 68.3102 421.832 65.2839 418.999C59.908 413.968 54.3295 409.207 48.7082 404.495C42.8084 399.549 37.0563 394.373 30.9541 389.725C25.4232 385.512 19.3888 381.953 14.0261 377.506C11.3269 375.268 8.63427 373.015 5.87821 370.847C5.72819 370.729 3.48564 369.232 3.46468 369.065C3.42497 368.759 4.16293 367.96 4.38079 367.703C5.41217 366.483 6.55495 365.396 7.58248 364.163C12.3715 358.415 18.6244 358.616 25.2335 358.344C28.2306 358.221 31.4808 359.726 34.3273 360.75C37.8081 362.002 41.1659 363.84 44.5281 365.427C51.4571 368.698 58.6086 371.493 65.6076 374.522C68.3598 375.713 71.1015 376.294 73.8995 377.113C76.7383 377.944 79.6626 377.152 82.6988 377.212C84.2746 377.242 85.7643 377.342 87.3511 377.245C88.2931 377.188 89.3785 376.993 90.309 377.01C91.063 377.025 91.8456 377.363 92.5394 377.278C95.5768 376.903 98.7851 376.378 101.918 375.948C105.028 375.521 108.237 375.309 111.307 374.641C112.852 374.305 114.377 373.83 115.864 373.259C117.155 372.764 119.501 372.202 120.56 371.199C121.508 370.301 121.093 370.289 120.565 368.825C120.356 368.247 120.14 367.369 119.83 366.811C118.992 365.305 118.182 364.831 118.67 362.946C119.529 359.622 122.456 357.501 124.961 355.864C130.606 352.178 135.768 347.451 141.712 344.324C153.958 337.882 165.119 329.513 177.062 322.439C190.19 314.662 202.609 305.537 215.919 298.089C228.309 291.156 240.642 284.183 253.134 277.468C259.234 274.191 266.133 271.191 271.668 266.894C268.602 266.48 265.526 265.945 262.449 265.648C261.022 265.511 259.577 265.638 258.158 265.391C256.571 265.115 255.07 264.416 253.486 264.126C250.762 263.625 248.313 262.609 245.586 262.235C242.663 261.832 239.8 260.897 236.863 260.635C230.719 260.087 225.175 257.621 219.789 254.514C218.456 253.744 217.361 254.184 216.083 253.661C215.379 253.373 214.632 252.223 213.842 251.606C211.665 249.904 209.796 247.896 207.727 246.037C203.378 256.661 194.837 263.886 186.687 271.013C182.559 274.622 178.078 277.681 173.907 281.222C170.674 283.968 167.738 286.425 164.286 288.609C160.972 290.704 157.859 293.533 154.699 296.05C152.557 297.756 150.047 299.044 147.77 300.525C145.909 301.735 142.276 303.54 141.768 305.736C141.353 307.529 142.163 309.664 139.648 308.839C137.396 308.101 135.764 305.38 134.452 303.464C131.06 298.504 127.896 293.377 124.747 288.235C123.055 291.828 120.138 294.416 117.44 297.08C115.802 298.699 114.101 300.2 112.331 301.645C111.473 302.346 110.605 303.034 109.745 303.733C109.406 304.009 108.638 304.434 108.419 304.823C107.906 305.733 108.218 305.32 108.298 306.42C108.422 308.144 108.951 309.5 108.054 311.151C107.213 312.702 105.378 313.364 104.091 314.423C101.032 316.943 97.8138 319.622 94.4191 321.59C93.6486 322.037 92.92 322.424 92.2024 322.971C91.0045 323.883 91.2235 324.214 90.0161 323.34C88.1282 321.972 86.4973 319.701 84.7936 318.051C81.224 314.595 77.6147 311.182 73.9591 307.835C66.9926 301.454 59.8203 295.39 52.9402 288.896C46.4022 282.724 39.3932 277.411 32.6434 271.543C30.7919 269.934 28.963 268.291 27.1357 266.649C25.5087 265.187 22.8685 263.576 21.665 261.706C19.9172 258.989 26.7541 255.276 28.8168 254.723C32.3737 253.771 36.9731 254.316 40.5355 255.097C44.2749 255.916 48.0828 258.657 51.5746 260.364C55.5106 262.288 59.5192 263.951 63.4842 265.768C65.2524 266.577 67.1271 267.224 68.7685 268.315C70.5103 269.473 72.0651 270.793 73.9172 271.764C76.0516 272.882 78.2694 273.925 80.5142 274.753C81.5312 275.127 82.626 275.504 83.6949 275.655C85.2083 275.869 85.0032 275.11 86.2601 274.687C87.3285 274.326 87.5822 275.278 88.543 275.543C89.4475 275.792 90.1237 275.54 90.9069 275.01C92.6531 273.831 94.2073 272.204 95.954 270.976C97.5745 269.836 99.3609 268.771 100.88 267.48C101.557 266.905 102.058 266.117 102.725 265.533C103.795 264.597 104.219 264.968 105.468 264.323C106.488 263.796 107.415 262.814 108.386 262.163C108.989 261.759 110.451 261.249 110.84 260.595C111.861 258.879 110.118 257.687 108.556 258.193C108.322 256.711 107.122 253.192 107.64 251.802C108.099 250.573 109.304 250.803 110.317 250.152C114.125 247.706 116.935 243.26 120.497 240.385C123.855 237.675 126.818 234.44 130.145 231.68C132.995 229.315 136.11 227.006 138.705 224.456C141.773 221.442 145.701 219.097 149.037 216.406C152.483 213.626 155.685 210.534 159.094 207.723C162.374 205.019 165.596 202.194 168.966 199.619C171.995 197.305 175.17 195.192 178.137 192.846C179.761 191.562 181.538 190.433 183.393 189.59C185.237 188.751 186.85 187.767 188.651 186.863C192.23 185.068 196.891 183.827 200.782 183.313C205.061 182.747 209.358 182.24 213.677 182.236C215.978 182.234 218.213 182.711 220.501 182.862C222.602 183 224.874 183.579 226.961 183.502C227.906 183.468 228.727 183.033 229.642 183.173C230.406 183.29 231.07 183.792 231.89 183.88C233.715 184.076 235.55 183.881 237.395 184.137C241.635 184.727 245.88 185.567 250.129 186.036C254.655 186.534 259.143 186.629 263.645 187.469C268.046 188.29 272.473 189.14 276.848 190.089C286.146 192.106 295.54 194.076 304.69 197.07C306.829 197.77 308.981 198.436 311.037 199.396C312.034 199.861 312.993 200.425 314.034 200.773C315.524 201.272 315.818 201.461 316.585 200.1C317.907 197.758 318.635 194.66 319.594 192.111C320.542 189.59 321.694 187.048 322.243 184.415C320.645 184.139 318.628 184.675 316.978 184.736C314.961 184.812 312.966 184.764 310.951 184.751C306.89 184.725 303.715 183.419 299.872 182.049C296.634 180.893 292.322 180.23 289.851 177.584C288.527 176.166 288.086 175.916 286.095 176.171C284.086 176.427 282.102 176.869 280.074 176.942C272.431 177.218 264.822 178.67 257.144 178.957C255.067 179.034 249.872 180.105 250.213 176.272C250.283 175.476 250.844 174.785 250.953 173.966C251.07 173.088 250.868 172.196 250.742 171.338C250.441 169.307 250.127 167.278 249.828 165.246C242.826 167.692 235.737 169.673 228.602 171.61C225.644 172.414 220.89 174.261 217.833 173.248C214.878 172.269 216.59 167.737 217.51 165.568C211.638 167.026 205.374 169.412 199.386 169.959C197.565 170.126 195.791 170.565 195.367 168.168C195.03 166.258 196.297 163.922 196.944 162.244C192.348 161.798 187.589 161.84 188.454 155.43C189.247 149.547 193.736 148.376 198.517 147.302C204.416 145.975 210.442 145.532 216.381 144.458C221.547 143.524 227.185 142.482 232.461 142.954C235.255 143.203 238.065 143.26 240.857 143.541C242.175 143.674 243.442 143.896 244.717 144.287C245.894 144.647 247.539 145.765 248.744 145.784C250.565 145.816 252.759 143.137 254.716 142.518C257.141 141.751 259.753 141.612 262.258 141.424C265.098 141.212 267.941 141.094 270.779 140.844C271.426 140.787 273.871 140.961 274.381 140.548C275.125 139.947 274.63 136.866 274.578 135.6C274.53 134.428 274.737 132.235 273.991 131.776C273.291 131.345 271.249 131.936 270.56 132.056C267.702 132.554 264.987 132.497 262.14 132.371C260.825 132.313 259.562 132.694 258.26 132.506C256.863 132.305 255.456 131.793 254.065 131.509C251.05 130.892 248.304 130.125 245.707 128.287C243.427 126.674 240.729 125.582 239.455 122.757C238.522 120.689 238.142 116.697 240.886 116.109C239.017 113.175 237.728 109.88 236.737 106.49C236.558 105.875 236.438 104.95 236.17 104.414C235.221 102.518 236.101 104.199 234.748 103.441C233.41 102.693 232.446 102.1 231.401 100.798C229.735 98.722 229.033 96.1666 228.823 93.4612C228.537 89.7869 228.003 85.6439 228.496 81.9882C229.349 75.6559 233.602 70.8982 237.923 67.0685C240.268 64.9891 243.356 64.2148 246.108 62.953C248.763 61.7345 251.73 60.4571 254.528 60.1714C257.053 59.9132 259.516 59.0158 262.044 58.6539C265.518 58.1556 268.997 58.3417 272.489 58.1905C274.096 58.1208 275.699 57.8741 277.299 57.6862C278.203 57.58 279.731 57.6934 280.558 57.3039C281.912 56.6652 281.181 58.0062 281.664 56.0529C282.584 52.3372 283.336 48.8527 284.729 45.2421C286.028 41.8782 287.604 38.6619 289.689 35.786C291.643 33.0884 294.178 31.1153 296.481 28.8109C298.187 27.1037 300.123 25.5616 302.069 24.181C303.182 23.3916 304.422 22.9648 305.509 22.2679C306.859 21.4035 308.051 20.748 309.57 20.2186C312.829 19.0829 316.064 17.8769 319.526 17.9364C323.258 18 327 17.0546 330.634 18.2533C337.381 20.4797 340.687 28.4381 340.573 35.7464C342.881 35.1197 344.898 33.9132 347.343 33.8099C349.594 33.7151 352.269 33.9276 354.481 34.3826C358.773 35.2656 363.187 37.8624 365.746 41.7977C368.188 45.5512 368.553 50.5346 367.052 54.7929C366.334 56.8315 365.195 58.6449 363.982 60.3671C363.093 61.63 361.108 63.028 361.015 64.7202C377.628 59.2547 394.309 55.4022 411.494 52.9087C420.206 51.6451 428.932 52.2778 437.652 51.5557C441.377 51.2471 445.425 51.6787 449.276 51.6949C450.902 51.7021 452.168 51.456 453.346 50.3107C454.54 49.1522 455.493 47.7332 456.884 49.4055C457.24 49.8323 457.314 50.8648 457.792 51.1859C458.371 51.5749 460.055 51.3078 460.747 51.354C463.169 51.5149 465.533 51.9621 467.91 52.4771C472.273 53.4225 476.607 54.3781 480.918 55.5781C489.126 57.8633 497.226 60.0735 505.315 62.7861C513.57 65.554 521.911 68.9689 529.522 73.4493C533.208 75.6193 536.891 78.3284 540.28 81.0128C541.855 82.2613 543.268 83.6119 544.638 85.1174C546.103 86.7267 547.895 87.8126 549.346 89.434C552.502 92.9605 555.646 96.7014 558.508 100.522C560.003 102.517 561.376 104.621 562.705 106.747C563.643 108.239 566.103 110.97 565.535 112.897C565.237 113.926 564.178 114.645 563.213 114.393C562.887 114.309 562.623 113.853 562.347 113.81C561.409 113.666 562.259 113.308 561.172 113.789C559.005 114.745 558.315 116.663 555.563 116.226C550.888 115.484 546.489 113.08 542.236 110.985C541.022 116.039 540.849 121.279 539.786 126.394C538.749 131.384 537.02 136.143 534.932 140.72C533.101 144.736 530.75 149.016 527.509 151.886C525.036 154.075 518.932 156.796 517.115 152.133C516.343 150.153 517.491 147.076 517.816 145.038C518.252 142.303 518.733 139.561 518.996 136.798C519.209 134.554 519.316 132.296 519.515 130.049C519.686 128.117 520.161 123.967 519.162 122.26C518.56 121.231 518.508 122.241 518.157 123.268C517.733 124.513 517.38 125.749 517.069 127.031C516.408 129.757 515.813 132.502 515.188 135.237C514.072 140.124 512.842 144.905 510.516 149.3C508.45 153.202 505.542 157.483 501.123 158.122C499.054 158.421 496.357 157.392 494.778 155.875C493.006 154.173 493.535 151.366 493.55 149.053Z" fill="#1E1E1E"/>
<path fill-rule="evenodd" clip-rule="evenodd" d="M392.646 348.631C395.075 348.109 397.119 346 399.102 344.415C401.631 342.394 404.031 340.192 406.487 338.068C411.115 334.068 415.314 329.68 419.308 324.908C427.186 315.493 433.118 303.374 435.814 290.992C437.178 284.727 438.865 277.387 438.091 270.912C437.822 268.663 437.411 268.25 435.385 267.995C434.47 267.879 432.148 267.593 431.324 267.984C429.188 269 428.035 273.321 427.402 275.493C425.531 281.905 424.43 288.546 422.74 295.011C421.083 301.348 418.412 307.777 415.772 313.702C409.896 326.887 401.728 337.917 392.646 348.631ZM440.819 275.84C439.367 293.794 434.787 310.899 424.518 325.357C419.637 332.23 413.896 338.209 407.674 343.64C401.25 349.249 394.689 354.53 387.399 358.713C385.459 359.827 383.517 360.936 381.553 361.998C380.464 362.587 377.716 364.755 376.46 364.412C375.454 364.136 375.191 363.289 375.034 362.187C374.682 359.714 376.159 358.479 377.652 356.891C383.65 350.509 389.667 344.104 395.275 337.315C406.35 323.907 414.67 307.851 419.295 290.528C420.72 285.194 421.991 279.8 423.529 274.504C424.465 271.278 425.793 265.534 428.906 263.925C430.575 263.063 432.52 263.902 434.275 263.385C435.922 262.9 437.013 261.911 438.416 263.57C440.878 266.481 440.988 272.192 440.819 275.84Z" fill="#1E1E1E"/>
<path fill-rule="evenodd" clip-rule="evenodd" d="M2.0463 379.43C0.816911 379.904 0.765618 380.374 0.202496 378.998C-0.0809968 378.304 -0.0043326 377.354 0.0624042 376.633C0.222351 374.906 1.05738 373.311 1.7435 371.781C8.20094 377.578 14.906 382.803 21.8301 387.925C29.2351 393.403 36.3053 399.493 43.3088 405.56C49.5804 410.995 55.9275 416.268 62.1334 421.77C65.1267 424.424 68.539 426.48 71.3845 429.215C73.6838 431.425 77.4972 432.416 79.4574 435.016C76.3511 437.036 72.204 438.663 68.7619 436.915C64.9645 434.987 62.0518 432.474 58.6725 429.861C56.9313 428.514 55.1206 427.292 53.3518 425.989C51.797 424.844 50.6989 423.171 49.1248 422.097C45.8167 419.838 42.423 417.349 39.2842 414.77C36.0599 412.121 32.4958 410.013 29.3851 407.198C26.1961 404.311 22.6265 402.399 19.2969 399.771C12.2404 394.202 6.02676 387.938 2.0463 379.43Z" fill="#1E1E1E"/>
<path fill-rule="evenodd" clip-rule="evenodd" d="M192.429 83.7217C192.342 84.2344 192.254 84.747 192.166 85.2602C192.22 85.2734 196.442 76.3954 197.142 75.3233C199.514 71.6887 202.602 68.6645 205.579 65.629C211.884 59.1989 219.263 54.0089 225.442 47.4642C227.475 45.311 231.118 42.0485 230.314 38.4079C229.514 34.7895 222.768 35.5248 220.458 36.5717C216.836 38.2134 213.894 41.647 211.194 44.6387C208.25 47.9024 205.282 51.1294 202.787 54.8229C200.097 58.8057 197.543 63.1192 195.894 67.7413C194.047 72.9193 193.326 78.2779 192.429 83.7217ZM193.816 99.6073C190.951 100.569 194.543 101.218 193.42 102.885C192.189 104.712 190.12 99.0821 189.811 98.019C187.987 91.7384 188.802 84.1083 189.798 77.7316C190.301 74.5148 190.626 71.2451 191.305 68.0631C191.967 64.9603 193.408 62.0117 194.739 59.1893C197.405 53.5419 200.935 48.2805 204.94 43.6759C208.958 39.0562 213.437 34.4341 218.739 31.59C223.12 29.2412 230.064 30.8709 232.114 36.0014C234.21 41.2442 231.376 46.9551 228.025 50.6414C223.653 55.449 218.89 60.2241 213.98 64.3696C211.456 66.5006 209.341 69.0775 206.89 71.3009C204.28 73.6678 202.023 76.0485 200.094 79.1093C198.225 82.0752 196.302 85.0387 195.087 88.4057C193.757 92.0925 193.816 95.7067 193.816 99.6073Z" fill="#1E1E1E"/>
<path fill-rule="evenodd" clip-rule="evenodd" d="M79.2076 325.695C72.6233 321.081 66.0169 317.029 60.2831 311.145C54.6218 305.335 49.6756 298.783 43.3748 293.742C40.231 291.227 36.9863 288.866 33.8982 286.269C30.9673 283.803 27.5985 281.692 24.9494 278.88C21.4184 275.131 14.8076 268.164 19.3187 262.575C24.918 269.822 32.6004 275.535 39.6044 281.037C46.9896 286.839 53.768 293.607 60.7734 299.928C67.5215 306.016 74.247 312.161 80.8319 318.411C82.561 320.053 84.2288 321.778 85.9783 323.393C86.1923 323.59 88.0058 324.841 88.0058 325.173C88.0063 325.972 86.6004 326.47 86.0996 326.692C85.3093 327.043 83.1715 327.914 82.2753 327.619C81.8053 327.465 81.7971 327.048 81.4584 326.801C81.2637 326.401 81.0365 326.025 80.7784 325.67C80.2544 325.679 79.731 325.688 79.2076 325.695Z" fill="#1E1E1E"/>
<path fill-rule="evenodd" clip-rule="evenodd" d="M466.822 245.243C462.128 245.111 454.983 245.096 455.246 252.072C455.376 255.526 457.097 258.063 458.511 261.017C459.995 264.122 461.095 267.329 461.531 270.809C463.293 284.896 458.565 298.658 454.289 311.68C463.473 303.613 470.105 292.388 473.588 280.084C475.276 274.117 475.933 266.448 475.388 260.236C475.115 257.127 474.061 254.34 472.793 251.57C472.155 250.179 471.518 248.59 470.503 247.464C469.485 246.335 468.074 245.959 466.822 245.243ZM450.448 319.748C447.416 314.321 452.19 306.33 453.751 301.038C455.617 294.712 457.339 288.124 458.137 281.525C458.973 274.613 457.894 269.239 454.95 263.134C452.318 257.675 450.755 250.406 453.682 244.631C454.86 242.307 456.6 242.021 458.669 241.094C461.208 239.956 461.908 238.032 465.024 238.337C470.584 238.88 473.157 244.619 475.225 249.509C480.048 260.908 478.736 275.619 474.624 287.065C472.256 293.651 469.557 300.49 465.538 306.099C463.567 308.849 461.25 311.232 458.847 313.526C456.246 316.007 453.917 318.998 450.448 319.748Z" fill="#1E1E1E"/>
<path fill-rule="evenodd" clip-rule="evenodd" d="M132.938 121.839C125.608 123.442 118.919 127.038 117.745 136.003C116.678 144.152 121.777 151.69 128.039 155.504C134.812 159.63 143.299 160.316 150.048 155.743C157.152 150.929 158.764 141.281 154.44 133.712C149.615 125.266 141.532 122.773 132.938 121.839ZM137.649 117.93C146.378 119.322 154.48 126.083 157.421 135.188C160.452 144.575 157.667 154.895 149.642 160.038C133.424 170.433 111.747 153.109 115.662 133.198C116.656 128.143 119.478 124.228 123.312 121.268C127.545 118 132.664 117.911 137.649 117.93Z" fill="#1E1E1E"/>
<path fill-rule="evenodd" clip-rule="evenodd" d="M447.992 22.6092C437.474 17.4337 426.956 12.2581 416.439 7.0826C416.008 12.2713 415.576 17.4595 415.145 22.6482C415.028 24.0523 414.55 25.9623 414.754 27.3477C414.971 28.8262 414.506 28.6683 416.277 28.4582C418.542 28.1887 420.814 27.58 423.056 27.1449C427.086 26.3621 431.371 26.1388 435.315 24.9875C437.328 24.3998 439.255 24.326 441.298 23.9706C443.542 23.5804 445.725 22.8577 447.992 22.6092ZM412.414 32.6397C412.414 26.7949 413.011 21.0287 413.502 15.2109C413.944 9.9765 414.115 4.98705 415.685 0C417.151 2.89871 421.212 4.05723 423.725 5.5489C427.188 7.60423 430.875 9.11752 434.419 10.9898C437.901 12.8284 441.254 14.9395 444.739 16.774C446.506 17.7044 448.301 18.5724 450.064 19.51C451.169 20.0971 453.787 21.0419 454.474 22.132C456.559 25.4407 449.422 25.7606 448.044 26.0524C443.913 26.9294 439.733 27.4234 435.609 28.325C431.764 29.1666 427.912 29.9475 424.054 30.7105C420.235 31.4656 416.3 32.6397 412.414 32.6397Z" fill="#1E1E1E"/>
<path fill-rule="evenodd" clip-rule="evenodd" d="M88.1178 177.335C92.2588 176.866 96.3827 176.191 100.519 175.746C104.436 175.324 107.901 174.875 111.479 172.921C106.592 171.317 101.694 169.799 96.7655 168.35C94.321 167.631 91.8815 166.871 89.4261 166.2C87.5266 165.68 85.8708 165.381 85.1406 163.124C84.2907 160.498 86.654 160.896 88.1272 161.563C90.1591 162.483 92.3724 163.055 94.4782 163.821C99.1785 165.528 103.907 167.099 108.652 168.652C110.127 169.135 118.672 170.92 115.593 174.023C114.275 175.351 111.335 176.081 109.724 177.034C107.657 178.258 105.408 178.745 103.109 179.232C98.3175 180.246 93.3453 180.636 88.4951 181.516C86.0181 181.966 83.5417 182.415 81.0653 182.865C79.6141 183.128 79.0554 183.102 78.6765 181.341C78.4007 180.061 78.7604 178.781 79.0251 177.541C79.6969 174.391 80.4442 171.258 81.1838 168.127C81.4651 166.932 81.9632 161.681 82.9422 161.107C85.1632 159.804 83.4496 167.073 83.2847 167.964C82.6614 171.322 81.9212 174.656 81.5881 178.064C83.7695 177.849 85.9448 177.626 88.1178 177.335Z" fill="#1E1E1E"/>
<path fill-rule="evenodd" clip-rule="evenodd" d="M146.834 204.068C147.656 206.314 146.291 206.816 144.635 207.594C142.488 208.603 140.375 209.668 138.188 210.577C133.588 212.488 128.954 214.262 124.464 216.473C115.899 220.688 107.218 224.737 98.7862 229.251C96.6909 230.373 94.594 231.49 92.4799 232.571C90.2936 233.688 87.7863 235.569 85.4472 236.208C83.407 236.765 83.1941 235.184 84.4031 233.728C85.9618 231.849 88.3715 230.447 90.3289 229.141C98.3847 223.767 107.177 219.392 115.976 215.695C126.145 211.421 136.343 207.321 146.834 204.068Z" fill="#1E1E1E"/>
<path fill-rule="evenodd" clip-rule="evenodd" d="M169.196 76.6744C168.901 69.847 169.74 63.0009 169.24 56.1914C160.638 64.4907 164.876 77.3167 169.825 86.322L169.196 76.6744ZM172.919 76.2843C172.974 79.6194 173.148 82.9527 172.85 86.271C172.537 89.7543 174.038 91.5486 175.995 94.1141C174.333 95.9497 170.52 91.6698 169.467 90.408C167.299 87.8101 165.686 84.3585 164.25 81.2389C161.192 74.5933 159.087 67.4783 161.534 60.182C162.441 57.4778 163.551 53.8011 165.953 52.2266C168.59 50.4978 170.608 52.9361 171.702 55.4441C174.374 61.5632 172.337 69.7161 172.919 76.2843Z" fill="#1E1E1E"/>
<path fill-rule="evenodd" clip-rule="evenodd" d="M264.045 415.665C268.011 416.007 271.919 416.344 275.885 416.617C275.201 410.7 274.516 404.782 273.831 398.864C271.536 399.442 269.241 400.02 266.946 400.598C265.862 400.871 264.198 400.943 263.237 401.533C262.878 401.623 262.519 401.713 262.16 401.804C262.15 402.572 262.143 403.34 262.136 404.108C262.109 406.381 262.049 408.651 261.962 410.922C261.926 411.873 261.621 413.267 261.83 414.209C261.459 415.162 261.695 415.568 262.54 415.425C263.042 415.504 263.543 415.585 264.045 415.665ZM261.315 419.943C258.206 418.258 259.056 413.11 259.061 409.833C259.064 407.748 259.2 405.677 259.25 403.596C259.284 402.165 258.984 400.394 259.436 399.011C260.241 396.552 264.178 396.619 266.203 396.791C267.704 396.918 268.961 396.836 270.499 396.729C271.258 396.676 272.104 396.833 272.849 396.589C273.01 396.537 274.526 395.386 274.459 395.383C277.179 395.496 277.215 402.593 277.392 404.394C277.828 408.833 278.223 413.28 278.578 417.728C278.672 418.905 279.074 420.236 278.047 420.908C277.12 421.514 274.664 420.915 273.639 420.881C269.508 420.745 265.4 420.044 261.315 419.943Z" fill="#1E1E1E"/>
<path fill-rule="evenodd" clip-rule="evenodd" d="M455.393 156.234C457.19 157.995 456.327 159.811 455.738 162.011C455.384 163.331 453.439 167.665 453.976 168.899C454.597 170.327 457.51 170.678 458.756 171.129C460.925 171.914 463.105 172.703 465.159 173.81C466.07 174.301 469.356 175.431 469.972 176.348C470.325 176.874 470.454 177.286 470.189 177.964C469.723 179.153 469.058 178.524 467.922 178.269C462.733 177.102 457.588 175.609 452.775 173.148C451.433 176.538 450.297 180 449.162 183.478C448.829 184.497 448.511 186.813 447.248 186.978C445.707 187.178 445.686 184.932 445.788 183.72C445.937 181.951 446.78 180.064 447.289 178.389C447.708 177.006 449.18 174.126 448.999 172.701C448.875 171.72 448.326 171.789 447.347 171.403C446.422 171.039 445.496 170.677 444.572 170.31C443.09 169.719 441.614 169.128 440.171 168.428C439.38 168.043 437.724 167.594 437.151 166.797C436.818 166.335 436.447 164.669 436.867 164.208C437.848 163.128 444.374 166.035 445.716 166.432C446.606 166.695 447.501 166.896 448.365 167.242C448.692 167.373 449.079 167.906 449.432 167.926C450.934 168.009 451.053 166.752 451.518 165.405C452.6 162.273 453.774 159.078 455.393 156.234Z" fill="#1E1E1E"/>
<path fill-rule="evenodd" clip-rule="evenodd" d="M81.2373 218.54C80.437 216.405 88.9313 213.826 90.5081 213.106C94.3568 211.353 98.4801 210.292 102.465 208.953C106.384 207.636 110.285 206.218 114.14 204.694C115.331 204.222 123.914 199.674 124.363 200.339C125.851 202.54 107.84 209.453 106.085 210.14C97.9352 213.334 89.5203 215.786 81.2373 218.54Z" fill="#1E1E1E"/>
<path fill-rule="evenodd" clip-rule="evenodd" d="M446.578 51.5651C444.376 51.5891 441.2 52.2686 439.18 51.2961C441.646 51.3856 444.112 51.4756 446.578 51.5651Z" fill="#1E1E1E"/>
<path fill-rule="evenodd" clip-rule="evenodd" d="M137.649 117.93L132.753 117.911C134.386 117.498 136.019 117.249 137.649 117.93Z" fill="#1E1E1E"/>
<path fill-rule="evenodd" clip-rule="evenodd" d="M392.613 116.506C393.767 116.5 394.922 116.493 396.069 116.486C394.911 116.493 393.762 116.5 392.613 116.506Z" fill="#1E1E1E"/>
<path fill-rule="evenodd" clip-rule="evenodd" d="M493.55 149.053C493.541 150.397 493.533 151.741 493.523 153.08C493.53 151.734 493.54 150.394 493.55 149.053Z" fill="#1E1E1E"/>
<path fill-rule="evenodd" clip-rule="evenodd" d="M266.204 396.791C264.977 396.888 263.751 396.984 262.526 397.08C263.753 396.984 264.978 396.887 266.204 396.791Z" fill="#1E1E1E"/>
<path fill-rule="evenodd" clip-rule="evenodd" d="M273.113 140.637C271.867 140.747 270.622 140.857 269.378 140.967C270.623 140.857 271.868 140.747 273.113 140.637Z" fill="#1E1E1E"/>
<path fill-rule="evenodd" clip-rule="evenodd" d="M401.967 116.063C402.849 116.062 403.729 116.06 404.604 116.059C403.72 116.061 402.844 116.062 401.967 116.063Z" fill="#1E1E1E"/>
<path fill-rule="evenodd" clip-rule="evenodd" d="M224.669 143.26C223.574 143.367 222.478 143.474 221.384 143.582C222.479 143.474 223.574 143.367 224.669 143.26Z" fill="#1E1E1E"/>
<path fill-rule="evenodd" clip-rule="evenodd" d="M273.036 58.1868C271.941 58.194 270.846 58.2012 269.751 58.2084C270.843 57.5781 271.939 57.7408 273.036 58.1868Z" fill="#1E1E1E"/>
<path fill-rule="evenodd" clip-rule="evenodd" d="M73.119 264.349C72.2078 264.296 71.4655 264.778 70.9514 263.832C71.7925 263.118 72.2779 263.94 73.119 264.349Z" fill="#1E1E1E"/>
<path fill-rule="evenodd" clip-rule="evenodd" d="M242.103 184.745L239.26 184.397L242.103 184.745Z" fill="#1E1E1E"/>
<path fill-rule="evenodd" clip-rule="evenodd" d="M261.315 419.943C261.943 419.958 262.57 419.973 263.191 419.988C262.561 419.972 261.938 419.958 261.315 419.943Z" fill="#1E1E1E"/>
<path fill-rule="evenodd" clip-rule="evenodd" d="M407.241 53.5112C406.262 53.6067 405.283 53.7021 404.304 53.7976C405.283 53.7015 406.262 53.6067 407.241 53.5112Z" fill="#1E1E1E"/>
<path fill-rule="evenodd" clip-rule="evenodd" d="M96.9992 376.722C96.0589 376.726 95.119 376.73 94.1792 376.733C95.1196 376.73 96.0594 376.726 96.9992 376.722Z" fill="#1E1E1E"/>
<path fill-rule="evenodd" clip-rule="evenodd" d="M21.416 358.581C20.4668 358.582 19.5181 358.584 18.5695 358.585C19.5187 358.584 20.4668 358.582 21.416 358.581Z" fill="#1E1E1E"/>
<path fill-rule="evenodd" clip-rule="evenodd" d="M261.241 141.489C260.277 141.593 259.314 141.695 258.35 141.798C259.314 141.695 260.277 141.593 261.241 141.489Z" fill="#1E1E1E"/>
<path fill-rule="evenodd" clip-rule="evenodd" d="M234.356 143.191C233.408 143.072 232.461 142.953 231.513 142.834C232.452 143.034 233.496 142.245 234.356 143.191Z" fill="#1E1E1E"/>
<path fill-rule="evenodd" clip-rule="evenodd" d="M320.217 184.608C320.807 184.535 321.635 184.31 322.243 184.415C322.164 184.794 320.443 184.607 320.217 184.608Z" fill="#1E1E1E"/>
<path fill-rule="evenodd" clip-rule="evenodd" d="M260.08 265.547C260.716 265.56 261.352 265.573 261.981 265.584C261.343 265.571 260.712 265.559 260.08 265.547Z" fill="#1E1E1E"/>
<path fill-rule="evenodd" clip-rule="evenodd" d="M202.639 183.117C201.711 183.215 200.782 183.313 199.854 183.41C200.783 183.312 201.711 183.215 202.639 183.117Z" fill="#1E1E1E"/>
<path fill-rule="evenodd" clip-rule="evenodd" d="M98.6538 179.672C99.1601 179.687 99.6664 179.701 100.166 179.716C99.6576 179.701 99.1557 179.687 98.6538 179.672Z" fill="#1E1E1E"/>
<path fill-rule="evenodd" clip-rule="evenodd" d="M235.531 183.878C234.736 183.861 233.942 183.843 233.148 183.826C233.942 183.843 234.736 183.861 235.531 183.878Z" fill="#1E1E1E"/>
<path fill-rule="evenodd" clip-rule="evenodd" d="M88.1178 177.334C87.3147 177.443 86.5117 177.55 85.7097 177.657C86.5133 177.549 87.3153 177.442 88.1178 177.334Z" fill="#1E1E1E"/>
<path fill-rule="evenodd" clip-rule="evenodd" d="M198.275 169.91C198.77 169.931 199.266 169.952 199.756 169.976C199.257 169.955 198.766 169.933 198.275 169.91Z" fill="#1E1E1E"/>
<path fill-rule="evenodd" clip-rule="evenodd" d="M236.109 260.688C236.613 260.652 237.116 260.617 237.613 260.581C237.107 260.616 236.608 260.652 236.109 260.688Z" fill="#1E1E1E"/>
<path fill-rule="evenodd" clip-rule="evenodd" d="M274.63 189.603C273.82 189.494 273.01 189.384 272.202 189.274C273.011 189.384 273.82 189.494 274.63 189.603Z" fill="#1E1E1E"/>
<path fill-rule="evenodd" clip-rule="evenodd" d="M79.2075 325.695C79.7331 325.687 80.2588 325.68 80.7783 325.671C80.251 325.679 79.7287 325.687 79.2075 325.695Z" fill="#1E1E1E"/>
<path fill-rule="evenodd" clip-rule="evenodd" d="M36.0512 254.612C35.214 254.52 34.3767 254.428 33.5389 254.336C34.3762 254.428 35.2134 254.52 36.0512 254.612Z" fill="#1E1E1E"/>
<path fill-rule="evenodd" clip-rule="evenodd" d="M18.1865 358.706C17.3636 358.809 16.5407 358.913 15.7173 359.016C16.5413 358.912 17.3636 358.809 18.1865 358.706Z" fill="#1E1E1E"/>
<path fill-rule="evenodd" clip-rule="evenodd" d="M466.779 116.361C466.715 117.136 466.65 117.91 466.584 118.681C466.649 117.906 466.714 117.134 466.779 116.361Z" fill="#1E1E1E"/>
<path fill-rule="evenodd" clip-rule="evenodd" d="M101.917 375.948C101.089 376.051 100.262 376.155 99.4342 376.258C100.262 376.155 101.09 376.051 101.917 375.948Z" fill="#1E1E1E"/>
<path fill-rule="evenodd" clip-rule="evenodd" d="M93.7954 376.841C92.9576 377.478 92.1203 377.514 91.282 376.843C92.1198 376.842 92.9576 376.842 93.7954 376.841Z" fill="#1E1E1E"/>
<path fill-rule="evenodd" clip-rule="evenodd" d="M77.9108 377.603C77.0983 377.603 76.2865 377.604 75.4746 377.604C76.287 377.604 77.0989 377.603 77.9108 377.603Z" fill="#1E1E1E"/>
<path fill-rule="evenodd" clip-rule="evenodd" d="M172.92 76.2844C172.85 75.4998 172.781 74.7159 172.711 73.9343C172.781 74.7201 172.85 75.5022 172.92 76.2844Z" fill="#1E1E1E"/>
<path fill-rule="evenodd" clip-rule="evenodd" d="M261.639 58.7654C260.823 58.8752 260.006 58.9845 259.191 59.0937C260.007 58.9845 260.823 58.8752 261.639 58.7654Z" fill="#1E1E1E"/>
<path fill-rule="evenodd" clip-rule="evenodd" d="M264.532 58.3501C263.702 58.4509 262.872 58.5524 262.043 58.6538C262.873 58.5524 263.702 58.4509 264.532 58.3501Z" fill="#1E1E1E"/>
<path fill-rule="evenodd" clip-rule="evenodd" d="M135.692 162.889C136.203 162.881 136.714 162.873 137.217 162.865C136.704 162.873 136.198 162.881 135.692 162.889Z" fill="#1E1E1E"/>
<path fill-rule="evenodd" clip-rule="evenodd" d="M209.597 154.202C212.306 153.716 215.015 153.554 217.723 154.2L209.597 154.202Z" fill="#1E1E1E"/>
<path fill-rule="evenodd" clip-rule="evenodd" d="M281.842 121.038C282.406 119.435 282.546 118.834 283.922 118.004C283.349 119.562 283.259 120.395 281.842 121.038Z" fill="#1E1E1E"/>
<path fill-rule="evenodd" clip-rule="evenodd" d="M347.898 279.654C347.953 281.32 348.007 282.987 348.061 284.651C348.007 282.984 347.952 281.319 347.898 279.654Z" fill="#1E1E1E"/>
<path fill-rule="evenodd" clip-rule="evenodd" d="M446.134 55.4141C444.909 55.4438 443.684 55.4741 442.464 55.5038C443.691 55.4741 444.912 55.4438 446.134 55.4141Z" fill="#1E1E1E"/>
<path fill-rule="evenodd" clip-rule="evenodd" d="M282.89 309.271C282.933 310.66 282.976 312.049 283.018 313.437C282.975 312.047 282.933 310.659 282.89 309.271Z" fill="#1E1E1E"/>
<path fill-rule="evenodd" clip-rule="evenodd" d="M132.728 264.764C133.965 264.773 135.203 264.782 136.441 264.792C135.203 264.782 133.965 264.773 132.728 264.764Z" fill="#1E1E1E"/>
<path fill-rule="evenodd" clip-rule="evenodd" d="M237.944 193.408C237.198 193.416 236.453 193.423 235.714 193.433C236.462 193.426 237.203 193.417 237.944 193.408Z" fill="#1E1E1E"/>
<path fill-rule="evenodd" clip-rule="evenodd" d="M235.515 149.25C234.901 149.227 234.287 149.205 233.681 149.184C234.297 149.207 234.906 149.228 235.515 149.25Z" fill="#1E1E1E"/>
<path fill-rule="evenodd" clip-rule="evenodd" d="M147.801 264.344C148.769 264.241 149.736 264.138 150.704 264.035C149.736 264.138 148.769 264.241 147.801 264.344Z" fill="#1E1E1E"/>
<path fill-rule="evenodd" clip-rule="evenodd" d="M126.712 264.816C127.661 264.801 128.609 264.785 129.556 264.769C128.609 264.785 127.661 264.801 126.712 264.816Z" fill="#1E1E1E"/>
<path fill-rule="evenodd" clip-rule="evenodd" d="M136.834 264.79C137.816 264.697 138.798 264.604 139.78 264.511C138.798 264.604 137.816 264.697 136.834 264.79Z" fill="#1E1E1E"/>
<path fill-rule="evenodd" clip-rule="evenodd" d="M140.414 266.484C139.926 266.481 139.438 266.478 138.957 266.475C139.447 266.478 139.931 266.481 140.414 266.484Z" fill="#1E1E1E"/>
<path fill-rule="evenodd" clip-rule="evenodd" d="M347.47 242.61C347.543 241.827 347.616 241.044 347.688 240.264C347.616 241.048 347.543 241.829 347.47 242.61Z" fill="#1E1E1E"/>
<path fill-rule="evenodd" clip-rule="evenodd" d="M200.886 163.453C201.502 163.51 202.118 163.567 202.734 163.624C202.046 163.663 201.358 163.701 200.671 163.739C200.675 163.585 200.746 163.49 200.886 163.453Z" fill="#1E1E1E"/>
<path fill-rule="evenodd" clip-rule="evenodd" d="M359.082 295.162C359.042 294.449 359.003 293.736 358.965 293.027C359.004 293.742 359.043 294.452 359.082 295.162Z" fill="#1E1E1E"/>
<path fill-rule="evenodd" clip-rule="evenodd" d="M211.938 160.732C211.444 160.742 210.95 160.752 210.461 160.762C210.958 160.751 211.448 160.742 211.938 160.732Z" fill="#1E1E1E"/>
<path fill-rule="evenodd" clip-rule="evenodd" d="M392.893 250.752C393.717 250.857 394.541 250.963 395.365 251.067C394.541 250.963 393.717 250.857 392.893 250.752Z" fill="#1E1E1E"/>
<path fill-rule="evenodd" clip-rule="evenodd" d="M221.755 191.664C221.248 191.672 220.741 191.68 220.24 191.689C220.749 191.682 221.252 191.673 221.755 191.664Z" fill="#1E1E1E"/>
<path fill-rule="evenodd" clip-rule="evenodd" d="M192.429 83.7217C192.961 84.0308 192.685 85.3898 192.166 85.2602C192.254 84.7469 192.341 84.2343 192.429 83.7217Z" fill="#1E1E1E"/>
<path fill-rule="evenodd" clip-rule="evenodd" d="M466.822 245.242C466.332 245.228 465.844 245.215 465.362 245.201C465.852 245.215 466.337 245.229 466.822 245.242Z" fill="#1E1E1E"/>
<path fill-rule="evenodd" clip-rule="evenodd" d="M169.196 76.6746C169.144 75.4771 169.093 74.2801 169.042 73.0862C169.093 74.2849 169.145 75.4795 169.196 76.6746Z" fill="#1E1E1E"/>
<path fill-rule="evenodd" clip-rule="evenodd" d="M261.787 415.305C262.541 415.425 263.294 415.545 264.046 415.665C263.293 415.545 262.54 415.425 261.787 415.305Z" fill="#1E1E1E"/>
<path fill-rule="evenodd" clip-rule="evenodd" d="M256.808 107.015C254.153 107.61 251.425 107.921 248.832 108.797C248.185 109.015 246.062 110.358 245.287 110.004C244.109 109.466 244.705 108.084 245.201 107.347C246.528 105.376 248.901 104.271 251.078 104.296C253.251 104.321 256.234 104.235 256.808 107.015Z" fill="#1E1E1E"/>
<path fill-rule="evenodd" clip-rule="evenodd" d="M249.43 112.304C252.354 114.531 254.588 115.628 254.836 110.622C258.005 111.092 256.585 116.647 254.186 117.065C251.577 117.521 249.835 114.684 249.43 112.304Z" fill="#1E1E1E"/>
</svg>
