<svg width="395" height="365" viewBox="0 0 395 365" fill="none" xmlns="http://www.w3.org/2000/svg">
<path fill-rule="evenodd" clip-rule="evenodd" d="M75.2611 311.232C75.3226 290.223 75.7265 269.206 76.4356 248.208C76.962 232.647 77.6364 217.073 78.9412 201.555C79.4578 195.407 80.0587 189.254 81.0046 183.155C81.5905 179.379 82.1289 175.265 83.7222 171.749C84.244 170.598 84.7477 169.85 85.8575 169.261C89.9617 167.083 95.5847 166.763 100.109 166.303C107.527 165.549 115.036 165.332 122.49 165.486C122.053 173.504 121.617 181.522 121.18 189.539C120.844 195.714 120.507 201.89 120.171 208.064C119.959 211.962 119.447 215.971 119.528 219.875C119.593 223.055 123.333 226.099 125.235 228.582C127.566 221.449 129.898 214.316 132.231 207.183C133.463 210.366 134.781 213.523 136.215 216.62C137.161 218.664 138.124 220.767 139.378 222.645C140.524 224.361 140.859 224.603 142.851 224.31C145.248 223.958 147.069 223.247 148.486 225.029C149.742 226.609 150.912 228.22 152.275 229.72C167.328 246.276 190.524 256.557 212.017 261.209C224.677 263.947 237.447 266.172 250.101 268.965C269.422 273.229 289.267 277.434 307.721 284.723C310.613 285.866 313.536 287.093 316.175 288.755C319.084 290.587 321.162 293.36 323.176 296.105C328.095 302.812 333.861 313.814 326.274 320.814C320.458 326.181 311.37 326.72 303.814 327.324C296.003 327.949 288.165 328.254 280.335 328.508C259.008 329.201 237.66 329.351 216.323 329.37C196.828 329.386 177.33 329.276 157.838 328.903C148.996 328.734 140.474 328.939 131.918 326.67C114.406 322.026 96.9448 317.192 79.4759 312.391C78.0713 312.005 76.6662 311.618 75.2611 311.232Z" fill="#FF5678"/>
<path fill-rule="evenodd" clip-rule="evenodd" d="M253.214 127.619C252.396 128.47 253.722 129.124 254.318 129.31C254.222 128.49 253.826 128.119 253.214 127.619ZM141.08 287.445C140.764 286.702 140.294 286.09 139.434 286.441C138.011 287.021 140.888 287.437 141.08 287.445ZM264.725 167.615C265.313 167.688 267.718 167.537 266.975 166.229C266.113 164.713 264.929 167.145 264.725 167.615ZM221.612 154.201C222.876 153.117 224.009 151.461 224.022 149.74C222.83 150.53 222.194 152.977 221.612 154.201ZM251.921 132.447C252.974 132.5 252.01 131.018 252.021 130.723C252.042 130.089 252.635 129.545 252.539 128.794C252.535 128.763 251.474 126.388 251.194 126.237C250.407 125.812 249.949 126.59 249.242 126.83C248.195 127.187 247.684 126.872 246.561 126.982C245.57 127.078 244.736 127.56 243.701 127.56C243.455 127.56 243.183 127.039 242.901 127.068C242.461 127.113 242.419 127.674 242.107 127.702C241.014 127.799 240.95 127.364 239.93 126.956C238.234 126.278 237.044 127.856 237.082 129.722C237.132 132.193 239.71 133.203 241.685 133.77C244.232 134.502 245.647 134.943 248.235 134.483C248.983 134.349 249.743 134.587 250.334 134.071C251.127 133.377 250.706 131.913 251.613 131.236C251.715 131.64 251.818 132.044 251.921 132.447ZM162.314 230.758C162.526 232.373 162.082 233.204 163.649 234.286C164.573 234.925 165.736 235.346 166.715 235.986C168.134 236.913 170.26 237.509 171.518 238.575C172.317 239.252 172.459 241.169 173.567 241.401C174.51 241.598 175.634 239.895 175.957 239.128C176.315 238.278 176.076 237.578 176.221 236.73C176.319 236.16 176.745 236.042 176.67 235.373C176.592 234.671 175.911 234.3 175.616 233.743C175.351 233.244 175.271 232.536 175.063 232.142C174.573 231.215 173.487 229.245 172.518 228.631C171.702 230.773 171.084 228.603 169.952 227.974C169.53 227.962 169.108 227.958 168.686 227.963C168.467 227.755 168.244 227.55 168.018 227.351C167.496 227.302 166.637 227.581 166.166 227.726C165.908 227.667 165.645 227.632 165.38 227.623C165.027 227.726 164.887 227.922 164.961 228.212C165.115 228.141 164.262 228.659 164.181 228.714C162.499 229.857 160.956 230.313 160.644 232.744C161.201 232.083 161.758 231.42 162.314 230.758ZM175.435 143.952C173.636 139.29 174.207 135.183 174.381 130.304C174.421 129.158 174.666 126.701 173.468 125.941C171.974 124.993 170.731 127.137 169.951 128.024C168.611 129.547 166.742 130.946 166.055 132.922C165.449 134.666 166.075 136.806 166.537 138.533C167.035 140.395 167.652 142.898 169.347 143.929C171.157 145.03 173.611 144.922 175.435 143.952ZM238.839 243.093C238.58 239.52 233.611 240.772 231.376 241.874C229.706 242.698 228.77 243.954 227.718 245.447C226.523 247.143 226.132 247.617 226.227 249.633C226.315 251.472 226.212 253.321 226.673 255.151C226.907 256.08 226.959 256.244 227.575 256.884C227.574 256.882 228.643 257.947 228.345 257.777C229.724 258.564 231.78 258.696 233.4 258.818C235.715 258.992 236.272 259.023 237.212 256.823C237.392 257.206 237.573 257.589 237.753 257.972C237.811 257.701 238.455 254.487 238.306 254.518C238.047 254.574 237.768 255.322 237.641 255.512C237.721 254.032 238.775 252.925 239.286 251.605C239.756 250.391 239.949 249.016 240.311 247.761C240.662 246.545 241.054 244.855 240.715 243.593C240.264 241.918 240.122 242.395 238.839 243.093ZM268.841 164.333C269.649 165.094 268.929 166.324 269.034 167.266C270.132 166.594 269.751 166.233 270.176 165.138C270.45 164.433 271.257 163.085 271.961 164.24C272.257 164.726 271.278 165.393 271.941 165.678C272.331 165.846 273.368 164.54 273.558 164.335C274.866 162.919 275.703 161.472 275.811 159.541C275.841 159.012 275.833 157.693 275.645 157.39C275.102 156.514 273.656 157.032 273.78 155.43C274.355 155.717 274.931 156.003 275.507 156.289C275.685 154.488 273.742 153.422 272.929 151.993C272.003 150.364 271.402 149.179 269.894 147.779C269.198 147.132 268.066 145.799 267.162 145.488C266.459 145.245 266.174 145.603 265.465 145.61C263.983 145.624 261.755 145.223 263.962 146.867C263.513 147.078 262.924 147.209 262.542 147.54C262.259 147.786 262.153 148.488 261.821 148.656C261.104 149.018 260.568 148.311 259.758 149.115C258.906 149.963 259.778 150.497 259.589 150.871C259.043 151.945 258.292 151.41 258.316 153.048C258.356 155.747 259.911 158.943 260.748 161.465C261.239 162.948 261.789 165.267 263.863 164.659C263.785 165.373 263.604 166.064 264.068 166.701C264.501 166.192 264.656 165.074 264.947 164.475C265.378 163.594 266.078 162.743 266.572 161.886C266.5 163.24 266.353 163.617 265.432 164.642C266.644 164.791 268.136 165.761 268.841 164.333ZM180.223 203.565C181.334 202.724 179.875 201.785 182.066 202.263C182.626 202.385 182.064 203.038 182.908 203.062C183.226 203.071 184.008 202.287 184.229 202.103C184.431 201.934 185.339 200.71 185.485 200.631C185.241 200.762 186.587 200.24 186.167 200.579C186.969 199.933 187.58 198.871 187.94 197.58C188.825 194.414 188.698 190.632 186.865 187.913C186.097 186.773 185.483 185.382 184.325 184.617C182.755 183.579 180.159 182.962 178.405 182.304L178.972 180.922C174.157 183.099 170.835 188.18 170.43 193.342C170.284 195.199 169.755 197.557 170.886 199.204C172.066 200.922 175.043 202.728 176.686 200.82C176.436 201.883 177.169 203.156 178.293 203.429C178.718 203.532 179.12 203.223 179.308 203.251C179.547 203.285 180.053 203.599 180.223 203.565ZM136.017 95.7856C132.781 95.4003 133.282 101.245 133.89 103C134.379 104.416 136.133 106.387 137.06 107.62C138.166 109.089 139.641 110.186 141.209 111.124C141.747 111.445 142.141 111.548 142.605 111.727C142.77 111.563 142.967 111.478 143.197 111.471C143.399 111.808 143.686 112.06 144.056 112.227C145.232 112.594 147.179 112.538 148.349 112.489C150.233 112.409 152.434 111.324 154.308 110.963C155.184 110.794 155.672 110.726 156.447 110.271C156.837 110.041 157.602 108.275 157.711 110.01C158.194 109.712 158.041 109.223 158.394 109.006C158.732 108.798 159.81 108.598 160.212 108.14C160.772 107.502 161.517 106.046 161.907 105.174C162.158 104.614 162.69 103.173 162.648 102.59C162.559 101.357 162.161 101.641 161.107 101.13C160.403 100.789 159.998 100.503 159.294 100.314C159.212 100.292 159.016 100.712 158.878 100.676C158.637 100.614 158.54 100.335 158.371 100.281C157.085 99.8644 155.568 98.6289 153.978 98.7484C153.292 98.8001 152.649 99.8457 152.296 99.7925C151.754 99.7103 152.025 98.5973 151.647 98.194C150.682 97.1669 147.464 97.3329 146.215 97.155C142.819 96.671 139.419 96.2195 136.017 95.7856ZM249.366 184.626C249.675 182.201 250.057 179.792 247.398 178.599C246.4 178.151 245.569 178.313 244.546 178.191C243.216 178.033 243.41 177.46 242.423 178.887C241.877 178.187 242.24 177.959 241.347 177.876C240.978 177.842 239.369 178.888 238.951 179.059C237.205 179.774 234.982 179.707 233.666 181.148C232.386 182.548 231.352 183.893 230.812 185.803C230.54 186.765 230.361 187.762 230.025 188.706C229.662 189.727 228.844 190.607 228.564 191.629C227.425 195.787 232.268 199.582 235.67 200.685C236.108 200.595 236.538 200.623 236.959 200.769C237.256 200.965 237.522 201.196 237.758 201.463C238.828 201.798 239.082 201.687 240.172 201.196C241.967 200.387 244.065 200.111 245.424 202.005C245.843 199.801 247.373 201.112 248.109 199.693C248.516 198.91 247.628 196.741 248.142 196.177C249.016 195.218 251.74 196.922 251.67 194.684C251.644 193.869 250.717 193.599 250.396 192.954C249.82 191.797 250.14 190.573 250.941 189.556C251.016 189.731 251.306 190.884 251.691 190.579C252.709 189.769 251.034 188.492 250.669 188.05C250.066 187.322 249.518 186.765 249.653 185.748C249.736 185.117 250.748 184.461 250.712 183.847C250.684 183.38 249.433 184.571 249.366 184.626ZM202.047 210.806C202.115 212.506 201.029 212.728 200.314 213.897C200.12 214.216 200.107 214.979 199.835 215.446C199.327 216.321 198.974 216.376 198.811 217.228C198.829 217.133 199.083 218.073 199.089 218.18C199.159 219.38 198.325 220.34 198.554 221.659C198.876 223.515 200.287 225.582 201.281 227.126C203.529 230.615 206.672 233.321 210.977 233.567C213.853 233.732 220.618 232.583 221.234 229.576C221.072 229.228 220.934 228.869 220.822 228.5C220.756 227.966 220.954 227.601 221.416 227.406C221.771 227.312 222.049 227.115 222.249 226.814C222.151 226.508 221.991 226.239 221.769 226.008C221.848 225.605 222.526 225.586 222.516 225.326C222.495 224.843 222.07 223.632 221.956 223.082C221.759 222.13 221.651 221.224 221.478 220.266C221.337 219.491 220.862 219.109 220.74 218.398C220.656 217.914 221.148 217.474 221.106 216.96C220.783 216.67 220.519 216.332 220.318 215.945C220.295 215.544 220.394 215.172 220.614 214.829C220.131 211.448 215.347 208.609 211.944 208.531C210.116 208.489 206.995 208.358 205.351 209.313C204.252 209.951 203.515 212.215 202.047 210.806ZM128.658 329.966C126.255 328.883 124.103 327.728 121.529 327.202C119.671 326.822 118.076 325.779 116.209 325.438C112.074 324.684 107.607 323.989 103.64 322.539C99.3873 320.983 94.7557 320.426 90.3966 319.133C88.2504 318.497 86.3773 318.079 84.1577 317.956C81.995 317.837 79.7717 316.631 77.61 316.834C75.8031 317.005 74.5144 318.393 73.1005 319.382C71.2672 320.666 69.2679 321.772 67.2975 322.831C65.2067 323.956 62.8774 324.52 60.814 325.617C59.1006 326.527 57.4178 327.415 55.6512 328.25C46.2654 332.685 37.2024 336.828 28.7381 342.999C31.4677 343.829 34.5726 343.001 37.2851 342.709C41.1405 342.292 44.9819 341.979 48.799 341.265C51.0325 340.847 55.3921 339.254 57.5249 340.479C59.399 341.554 59.2553 344.316 59.5242 346.163C61.2934 345.481 63.0548 344.78 64.8395 344.139C66.243 343.635 68.5206 342.248 69.951 342.2C73.9357 342.065 73.5002 347.657 73.1124 350.223C75.4406 349.432 77.6545 348.88 79.9114 347.901C81.7204 347.115 83.7181 346.942 85.4754 346.005C89.8417 343.678 94.6864 342.22 99.3614 340.568C104.636 338.704 109.899 336.805 115.128 334.816C117.278 333.998 119.397 332.919 121.596 332.256C123.964 331.542 126.388 331.005 128.658 329.966ZM180.7 116.744C180.366 119.89 180.71 123.061 180.806 126.21C180.919 129.897 180.924 133.545 181.401 137.211C182.262 143.824 183.475 150.438 185.843 156.695C187.998 162.394 191.636 166.424 197.796 167.656C203.331 168.762 208.725 166.865 212.247 162.442C215.901 157.857 217.023 152.065 219.162 146.75C220.208 144.152 220.983 141.539 221.856 138.879C222.379 137.287 224.973 132.714 224.231 131.078C223.506 129.48 219.231 128.934 217.751 128.046C215.4 126.635 213.225 123.805 211.43 121.738C210.228 120.352 209.526 119.328 208.715 121.526C207.74 124.167 208.446 127.218 207.537 129.78C206.642 132.299 204.688 129.814 204.487 128.172C204.102 125.02 204.565 121.438 204.714 118.27C204.992 112.365 205.379 105.535 210.704 101.895C215.75 98.4443 221.227 97.3707 224.029 91.4136C225.152 89.0254 226.473 86.5234 225.771 83.8513C224.96 80.7675 223.76 77.5425 222.579 74.5787C220.311 68.887 216.759 63.9311 213.653 58.7053C213.234 58.0004 213.146 57.0969 212.229 56.8978C211.193 56.6723 208.774 58.4353 207.769 58.7198C205.033 59.4934 202.588 57.8882 200.174 59.7049C198.236 61.1633 196.594 63.2619 193.98 63.4145C192.855 63.4801 191.328 62.4753 190.358 62.7153C189.122 63.0209 188.765 64.8646 188.289 65.9004C187.195 68.2772 185.975 71.2555 184.171 73.1985C183.558 73.8578 182.477 74.0616 181.954 74.6754C181.345 75.3886 181.683 76.8366 180.811 76.9664C180.306 77.0414 179.903 76.3562 179.478 76.1928C178.755 75.9145 178.047 75.8613 177.273 75.884C175.843 75.9259 174.359 76.2714 173.102 76.9561C170.178 78.5479 169.098 80.9687 172.611 82.4244C174.02 83.0083 175.549 83.4427 177.072 83.5782C178.744 83.7266 180.436 83.2048 182.089 83.4086C185.277 83.8011 186.258 86.4675 187.083 89.2074C188.218 92.9764 189.135 96.7925 190.409 100.522C191.45 103.569 193.341 106.666 193.888 109.85C194.223 111.805 193.784 111.659 192.478 112.868C191.484 113.789 190.886 114.997 189.809 115.921C186.805 118.496 184.188 117.81 180.7 116.744ZM374.568 299.807C374.476 299.135 360.239 300.42 358.622 300.254C355.858 299.969 352.916 300.726 350.059 300.629C347.533 300.543 343.89 299.562 341.804 300.788C341.031 301.243 341.012 301.78 339.792 301.548C338.658 301.333 337.463 300.531 336.614 299.788C334.251 297.721 332.807 294.468 331.262 291.786C328.169 286.42 325.52 280.86 322.953 275.217C317.665 263.594 312.577 251.905 307.295 240.279C304.682 234.529 302.163 228.769 299.345 223.125C298.143 220.716 296.823 218.074 295.897 215.551C294.888 212.799 293.561 210.216 292.657 207.395C290.74 201.42 288.449 195.534 286.981 189.39C286.609 187.835 286.471 186.205 286.023 184.672C285.545 183.034 284.57 181.634 283.958 180.048C283.334 178.433 283.333 176.991 283.022 175.34C282.713 173.694 281.956 172.09 281.412 170.514C278.608 172.204 275.416 173.743 272.836 175.752C270.298 177.729 266.595 179.385 267.658 182.959C268.624 186.21 270.335 189.199 271.352 192.445C272.494 196.088 273.897 199.648 274.999 203.299C277.364 211.136 279.434 219.066 281.552 226.974C282.547 230.689 283.79 234.411 284.519 238.19C284.899 240.156 284.836 241.914 285.551 243.818C286.249 245.679 286.911 247.5 287.485 249.406C288.506 252.798 289.48 256.197 290.609 259.554C291.221 261.37 291.709 263.207 292.144 265.074C292.407 266.202 293.302 268.371 293.05 269.539C292.327 272.901 287.88 269.475 286.816 268.103C284.346 264.919 282.575 261.024 280.726 257.46C273.3 243.146 269.649 227.707 265.821 212.126C264.814 208.029 263.843 203.97 262.712 199.916C261.526 195.668 261.181 191.227 259.783 187.002C258.337 182.638 256.863 178.432 255.801 173.942C255.31 171.863 254.791 169.785 254.355 167.694C254.122 166.577 254.112 164.524 252.626 164.302C253.583 171.308 253.937 179.516 256.729 186.087C259.26 192.047 261.271 200.212 258.713 206.539C257.482 209.582 255.536 212.181 254.072 215.08C252.435 218.321 251.369 222.042 250.272 225.495C248.001 232.646 247.331 240.167 245.811 247.482C245.014 251.316 244.998 253.939 245.69 257.712C245.912 258.926 245.519 259.892 246.542 260.671C247.572 261.454 249.951 261.612 251.223 262.062C255.084 263.427 258.403 264.428 262.491 264.875C266.352 265.298 269.979 266.065 273.657 267.33C280.285 269.609 287.177 271.313 293.689 273.597C297.251 274.847 300.687 277.074 304.111 278.671C307.673 280.333 311.452 281.418 314.81 283.492C318.428 285.725 322.005 288.319 325.432 290.822C328.608 293.141 330.13 296.024 331.452 299.632C333.964 306.493 340.3 315.396 334.448 322.319C336.499 323.21 338.847 323.565 340.813 324.518C341.492 324.847 341.694 325.168 342.465 325.358C343.474 325.605 344.773 325.407 345.806 325.475C347.301 325.572 350.45 326.647 351.907 326.212C353.27 325.806 353.329 323.83 354.308 322.855C355.759 321.409 357.151 322.341 358.927 322.18C361.556 321.942 364.176 321.597 366.808 321.367C372.117 320.904 377.411 320.795 382.737 320.808C379.965 317.73 369.767 323.331 369.516 317.757C369.226 311.306 377.1 313.241 380.927 311.38C377.449 311.482 373.97 311.516 370.498 311.792C368.391 311.959 364.34 312.968 363.148 310.652C361.868 308.163 363.928 305.283 365.858 303.983C368.528 302.185 371.614 301.038 374.568 299.807ZM84.4059 213.792C83.7678 215.064 84.756 215.577 85.2039 216.602C85.8224 218.019 85.2117 217.737 85.0875 219.071C85.0043 219.965 85.2484 220.387 85.1977 221.224C85.1765 221.58 84.6697 222.053 84.6102 222.459C84.5032 223.187 84.8967 223.522 84.8538 224.05C84.8326 224.312 85.1718 224.359 85.1025 224.739C85.0425 225.07 84.2792 225.304 84.2342 225.512C83.9757 226.721 84.7002 226.116 84.8109 226.689C84.996 227.645 84.4582 227.809 84.152 228.688C83.624 230.205 84.1344 230.912 84.4607 232.334C84.7369 233.534 84.3268 233.542 84.1711 234.687C84.0765 235.382 84.2772 235.467 84.2741 236.113C84.2647 238.344 83.7657 240.664 83.745 243.028C83.6959 248.622 83.2222 254.135 83.1513 259.717C83.0815 265.2 82.6823 270.753 82.4423 276.305C82.3254 279.013 82.0508 281.711 81.9324 284.418C81.7943 287.563 82.102 290.692 81.8372 293.824C81.5968 296.671 81.741 299.527 81.6231 302.382C81.5678 303.736 80.8707 307.834 81.7602 308.745C82.9155 309.927 87.5968 308.669 89.111 308.752C91.9574 308.908 94.9584 309.481 97.7474 310.068C104.357 311.46 110.982 313.233 117.594 314.482C123.108 315.523 128.28 318.171 133.412 320.413C132.942 315.698 132.112 311.099 131.958 306.348C131.82 302.077 132.223 297.829 132.128 293.563C131.926 284.462 131.41 275.462 131.614 266.363C131.821 257.11 132.567 247.662 133.855 238.497C134.447 234.286 134.909 229.8 136.415 225.799C137.098 223.986 138.209 222.657 137.748 220.663C137.248 218.503 136.26 216.245 135.53 214.151C134.993 217.562 133.101 240.292 125.33 233.459C122.295 230.791 120.89 225.011 120.211 221.223C119.295 216.103 119.624 210.722 119.648 205.54C119.695 194.984 120.856 184.214 121.921 173.715C122.134 171.618 123.193 169.743 120.503 169.843C117.98 169.938 115.389 170.535 112.88 170.83C110.709 171.084 108.53 170.464 106.461 170.742C105.512 170.869 104.674 171.43 103.716 171.573C102.507 171.752 101.244 171.489 100.028 171.491C97.977 171.494 95.5997 171.483 93.8977 172.758C92.1099 174.098 90.5771 176.316 89.9767 178.46C89.3768 180.605 89.5371 183.018 89.1575 185.16C88.8374 186.966 88.7691 189.194 88.4697 191.244C87.1722 189.618 87.2554 191.965 87.2415 192.659C87.2254 193.496 86.324 195.192 86.5562 195.683C86.7062 196 87.7136 195.832 87.799 196.081C87.9743 196.592 87.3677 196.809 87.3568 197.191C87.3139 198.683 87.3992 200.224 87.3956 201.728C87.0439 201.459 86.6912 201.19 86.339 200.921C86.1539 201.323 86.0955 201.848 85.9191 202.255C85.8395 202.44 85.0958 202.389 85.0606 202.753C85.0146 203.228 86.0551 204.143 86.2558 204.663C86.6152 205.59 86.8443 205.224 86.2351 206.224C85.5338 207.376 84.3857 207.44 84.5693 209.114C84.9407 208.83 85.2644 208.499 85.5416 208.122C85.7154 209.121 85.281 210.002 85.2282 210.997C85.1936 211.647 85.9853 214.244 85.3885 214.678C85.1377 214.861 84.467 213.862 84.4059 213.792ZM136.842 131.871C136.847 129.679 133.647 126.308 132.547 124.474C130.791 121.548 128.904 118.898 126.672 116.312C124.43 113.714 122.037 111.237 119.863 108.582C118.963 107.484 118.295 106.202 117.378 105.126C116.231 103.784 115.989 104.197 114.569 104.232C113.49 104.26 112.785 104.076 111.787 104.397C111.257 104.567 110.914 104.82 110.344 104.976C109.988 105.075 109.518 104.729 109.039 104.896C107.856 105.308 107.454 106.363 106.026 106.342C105.855 106.339 105.307 105.933 105.228 105.956C105.131 105.984 104.687 106.323 104.703 106.319C104.607 106.341 104.635 107.012 104.381 107.129C103.948 107.328 103.641 106.659 103.246 106.703C102.249 106.812 101.508 107.841 100.405 108.091C98.9875 108.411 97.7619 107.944 96.4085 108.603C95.3271 109.13 94.7805 110.327 93.8812 109.089C93.0667 110.819 91.5675 110.295 90.0698 111.023C87.9815 112.04 85.7179 112.555 83.4942 113.322C78.9189 114.901 74.3116 116.519 69.8517 118.419C60.6004 122.362 51.6412 126.734 42.5968 130.973C33.7514 135.118 25.57 140.615 17.6095 146.148C13.7066 148.861 9.82639 151.71 6.78191 155.425C5.85931 156.55 4.31872 158.298 4.94033 159.882C5.59815 161.556 8.37836 162.596 9.9505 162.917C12.0119 163.339 14.278 163.48 16.3766 163.62C18.6423 163.772 21.076 163.847 23.3184 163.817C27.7379 163.756 32.0727 163.325 36.513 163.227C41.564 163.116 46.5157 162.05 51.5564 161.987C57.0977 161.918 62.5759 161.223 68.1255 161.44C78.8222 161.859 89.5097 162.168 100.238 162.219C101.573 162.226 102.882 162.065 104.193 162.298C105.256 162.486 106.025 162.858 107.166 162.776C108.229 162.7 109.214 162.235 110.297 162.179C111.719 162.105 113.176 162.339 114.605 162.31C119.431 162.211 125.155 161.773 129.807 163.299C131.655 163.905 133.978 165.671 132.852 167.96C131.738 170.223 128.892 168.379 127.131 169.407C125.49 170.366 126.4 172.98 126.516 174.544C126.735 177.506 126.775 180.453 126.697 183.421C126.524 189.977 126.125 196.524 126.049 203.082C126.012 206.267 126.057 209.451 126.225 212.632C126.374 215.44 126.275 218.495 127.235 221.175C128.572 217.829 128.735 214.136 129.265 210.61C129.839 206.796 130.4 202.982 130.945 199.164C131.27 196.896 131.606 183.273 136.045 185.052C140.764 186.943 139.123 197.424 139.337 201.192C139.54 204.748 139.903 208.291 140.709 211.766C141.084 213.381 142.114 220.239 144.185 220.682C145.703 213.505 147.309 206.339 148.426 199.084C148.919 195.882 149.354 192.655 149.55 189.42C149.652 187.736 149.528 183.689 151.962 183.493C159.117 182.916 154.317 213.064 159.664 216.857C161.642 212.923 162.415 208.821 162.951 204.459C163.196 202.474 163.718 200.239 163.409 198.248C163.004 195.643 162.565 194.046 163.109 191.354C163.553 189.151 163.874 186.888 164.388 184.704C164.758 183.129 165.726 182.361 166.236 180.941C167.675 176.944 167.582 171.885 168.156 167.689C168.736 163.439 169.349 159.262 168.596 154.975C167.85 150.73 164.745 149.38 161.214 147.628C157.657 145.862 154.225 143.922 150.318 143.143C145.932 142.269 141.906 141.421 137.416 141.188C129.492 140.779 121.727 141.254 113.839 141.63C105.068 142.047 96.288 141.527 87.5218 141.406C83.2604 141.348 78.9189 141.266 74.6649 141.335C72.5332 141.37 70.4651 141.74 68.3194 141.686C66.4913 141.64 62.9177 142.204 61.3177 141.232C60.062 140.469 60.0636 138.779 61.1237 137.848C62.1741 136.925 64.2339 136.876 65.5454 136.591C69.7369 135.681 73.915 135.159 78.1365 134.429C80.5676 134.008 82.6073 133.869 85.0436 133.987C87.4096 134.103 89.8226 133.426 92.2149 133.312C97.2846 133.07 102.384 132.83 107.456 132.751C117.286 132.598 127.003 131.847 136.842 131.871ZM141.972 228.022C141.181 228.328 141.382 232.105 141.31 232.86C141.097 235.119 140.862 237.376 140.661 239.637C140.197 244.855 139.847 250.085 139.562 255.316C139.277 260.548 138.939 265.796 138.956 271.037C138.963 273.268 139.063 275.496 139.018 277.727C138.985 279.395 138.251 282.516 139.674 283.701C140.629 284.495 142.499 284.138 143.614 284.064C145.818 283.92 148.028 283.772 150.238 283.756C152.79 283.736 155.326 284.011 157.88 283.944C158.86 283.919 159.954 283.755 160.924 283.94C161.627 284.075 162.394 284.681 163.053 284.707C163.538 284.727 164.166 284.246 164.702 284.151C165.537 284.004 166.516 284.174 167.365 284.164C167.969 284.157 169.426 283.884 169.981 284.24C170.523 284.588 170.314 285.38 170.809 285.555C170.997 285.622 172.072 284.345 172.256 284.265C173.079 283.906 174.279 284.185 175.146 284.195C177.643 284.223 180.141 284.065 182.639 284.089C185.074 284.112 187.422 284.395 189.759 284.678C191.304 284.865 193.079 284.396 194.719 284.259C197.342 284.039 199.975 284.08 202.605 284.132C203.924 284.159 205.245 284.179 206.565 284.212C206.877 284.22 207.496 284.098 207.797 284.188C209.009 284.552 208.24 284.573 209.096 285.126C207.973 284.4 211.608 283.928 211.818 283.926C213.467 283.914 214.979 284.724 216.352 284.565C217.839 284.394 219.358 283.475 220.994 283.759C221.759 283.893 222.394 284.748 222.962 284.847C223.881 285.005 224.195 284.342 225.037 284.01C226.718 283.347 228.668 283.924 230.423 283.81C232.886 283.649 235.258 283.643 237.73 283.61C242.241 283.551 246.752 283.476 251.263 283.52C255.418 283.56 258.755 285.226 262.887 285.136C265.054 285.089 267.257 284.899 269.421 284.952C271.279 284.995 272.228 286.38 270.824 288.007C269.874 289.107 268.13 289.224 266.791 289.425C264.804 289.724 262.852 290.155 260.872 290.487C256.162 291.276 251.232 291.251 246.468 291.395C227.04 291.98 207.607 293.707 188.166 293.889C179.63 293.97 171.002 294.688 162.493 294.353C157.746 294.166 153.105 295.186 148.322 294.453C146.305 294.144 144.322 293.956 142.289 293.811C142.024 293.792 140.471 293.492 140.178 293.625C139.311 294.02 139.795 293.659 139.431 294.661C138.835 296.307 139.084 298.931 139.087 300.683C139.093 303.475 139.229 306.273 139.323 309.064C139.413 311.737 139.562 314.409 139.721 317.08C139.787 318.185 139.352 322.341 140.204 323.164C140.863 323.803 143.948 323.501 144.783 323.322C145.784 323.108 145.878 323.055 146.962 323.182C147.761 323.277 148.046 323.253 148.846 323.167C151.139 322.919 153.764 322.875 156.066 323.29C157.852 323.611 159.729 322.763 160.412 324.642C161.568 323.227 161.542 324.042 162.812 324.326C164.12 324.619 163.719 323.774 164.828 323.657C165.61 323.576 166.307 324.193 167.152 324.199C168.548 324.208 169.803 323.839 171.296 324.025C177.885 324.847 184.568 325.586 191.213 325.647C193.97 325.673 196.694 325.716 199.436 325.799C200.835 325.842 202.158 325.988 203.533 326.152C204.83 326.309 205.849 325.997 207.196 325.929C210.177 325.777 213.303 326.231 216.284 326.393C217.686 326.47 219.441 326.229 220.785 326.413C222.136 326.598 222.238 327.624 223.312 328.219C223.482 324.89 230.443 327.022 232.255 327.026C232.967 327.028 233.836 326.725 234.695 326.78C236.117 326.871 237.548 326.895 238.972 326.945C241.242 327.024 243.436 327.162 245.593 326.887C248.41 326.528 251.47 326.911 254.316 326.893C257.415 326.873 260.514 326.832 263.612 326.73C266.75 326.627 269.882 326.435 273.02 326.335C275.745 326.247 278.636 326.466 281.323 326.267C282.02 326.215 282.686 325.705 283.308 325.678C284.171 325.642 285.138 326.012 286.134 325.927C289.274 325.659 292.199 325.615 295.372 325.626C300.816 325.645 306.472 324.639 311.691 323.198C314.096 322.533 316.597 322.497 318.986 321.784C321.743 320.961 324.268 319.526 326.806 318.198C328.793 317.157 331.588 316.673 330.778 314.042C329.915 311.234 328.535 308.51 327.507 305.751C326.614 303.353 326.044 301.016 324.106 299.211C322.192 297.428 319.746 296.231 317.707 294.587C313.261 291.004 308.621 288.862 303.357 286.74C298.051 284.601 293.21 281.447 287.636 280.025C282.461 278.704 277.474 276.933 272.403 275.58C266.855 274.099 261.133 273.562 255.537 272.246C250.173 270.984 244.908 269.129 239.473 268.168C233.594 267.129 227.66 266.594 221.802 265.326C216.836 264.251 212.098 262.146 207.106 261.306C205.648 261.061 204.071 260.911 202.659 260.452C201.34 260.024 200.395 259.156 199.061 258.804C195.981 257.993 193.304 256.887 190.388 255.568C189.162 255.013 188.482 254.331 187.42 253.644C186.152 252.824 184.529 252.533 183.106 252.081C180.366 251.21 177.636 250.355 175.177 248.826C172.629 247.243 170.288 245.452 167.942 243.602C166.949 242.819 165.886 242.032 164.868 241.299C163.613 240.397 162.326 240.233 160.92 239.644C154.821 237.085 152.151 231.078 148.829 225.851C148.517 230.084 144.467 232.048 141.972 228.022ZM228.648 153.876C229.068 151.98 229.668 149.259 227.305 149.153C227.153 149.146 225.587 149.537 225.426 149.641C224.621 150.159 224.316 151.886 224.009 152.724C223.739 153.464 223.551 154.448 222.95 155.007C222.357 155.559 221.738 155.572 221.185 156.233C219.502 158.244 218.247 161.699 217.229 164.127C218.611 163.793 217.607 164.719 218.194 165.247C219.112 166.072 218.826 165.923 220.131 166.051C222.404 166.273 223.442 165.667 225.219 164.251C226.727 163.051 227.211 162.264 228.079 160.53C229.319 158.054 228.714 156.476 228.645 153.874C229.267 154.447 229.89 155.019 230.512 155.592C230.319 154.842 230.125 154.091 229.933 153.342L228.648 153.876ZM163.253 4.17346C164.461 0.0383086 166.718 -0.267328 169.752 2.70371C170.233 1.64096 170.802 -0.00926953 172.201 3.92108e-05C173.193 0.00676219 173.368 0.808348 174.033 1.34929C174.836 2.00349 175.461 2.2331 176.48 2.40738C178.703 2.78749 180.769 2.65717 182.862 3.65113C184.768 4.55615 185.675 5.87799 187.142 7.23344C188.515 8.5015 189.517 7.68026 191.085 8.32205C192.827 9.03572 193.607 11.1478 193.944 12.859C194.357 14.9525 193.927 15.6196 195.383 17.1395C196.755 18.5736 197.483 20.3996 197.649 22.37C197.804 24.2333 197.393 26.4446 196.318 28.0157C195.107 29.7854 193.852 29.2962 195.429 31.3984C196.222 32.457 196.311 34.7102 197.266 35.389C198.935 36.5748 201.09 34.6616 202.565 34.1802C204.568 33.526 204.121 34.6203 205 35.9402C206.299 37.8899 207.071 35.8782 208.842 36.2676C209.493 36.4108 209.684 37.1137 209.913 37.198C210.722 37.4979 209.863 37.3867 210.787 37.0532C211.401 36.8318 210.98 35.6403 212.218 36.3204C213.078 36.7935 212.431 37.6349 212.822 38.2442C213.589 39.4419 214.73 38.7437 215.298 40.2895C215.862 41.829 216.627 43.8708 216.941 45.5541C217.324 47.5989 216.426 49.3784 216.557 51.3131C216.694 53.3336 218.696 54.6953 219.942 56.1118C226.049 63.054 228.634 72.1848 230.627 81.0106C232.478 89.2131 229.219 98.4991 222.82 104.058C219.576 106.877 215.523 108.086 212.408 111.187C211.025 112.564 211.043 113 212.691 114.128C214.04 115.053 215.279 116.23 216.709 116.96C220.386 118.838 223.97 120.179 228.076 120.967C230.147 121.364 232.303 121.205 234.398 121.131C236.578 121.053 239.04 121.362 241.172 121.096C243.055 120.861 244.544 119.341 246.516 119.502C247.288 119.565 247.762 119.861 248.548 119.791C249.581 119.7 250.45 119.153 251.548 119.181C253.218 119.223 254.871 119.251 256.485 119.312C258.319 119.381 260.474 118.879 262.3 119.196C264.031 119.496 266.091 121.054 267.598 121.962C269.455 123.081 271.684 124.376 273.347 125.744C274.918 127.037 276.025 129.094 277.25 130.7C278.546 132.398 280.045 133.915 281.348 135.606C286.477 142.261 291.88 150.458 293.483 158.837C293.889 160.958 293.867 163.052 293.561 165.181C293.288 167.083 291.503 167.806 291.449 169.851C291.339 173.989 293.321 178.787 294.473 182.709C295.685 186.838 297.204 190.85 299.085 194.733C299.813 196.237 300.736 197.48 301.194 199.038C301.754 200.94 302.606 202.745 303.229 204.664C308.621 221.264 316.98 236.717 323.072 253.065C326.346 261.85 329.809 270.56 333.378 279.232C335.135 283.502 337.038 287.641 338.948 291.845C339.199 292.397 339.378 293.462 339.815 293.842C340.554 294.485 339.903 294.119 340.938 294.01C341.83 293.916 342.757 293.509 343.658 293.358C345.832 292.993 348.059 292.93 350.252 292.714C352.771 292.465 354.989 292.335 357.51 292.457C359.857 292.571 362.166 291.874 364.502 291.719C369.508 291.387 374.445 291.562 379.448 291.656C383.347 291.729 388.338 291.265 391.945 293.075C395.559 294.889 394.312 299.064 391.248 300.654C387.575 302.56 383.253 302.832 379.604 304.774C382.342 305.617 385.302 305.4 388.092 306.058C389.89 306.482 392.669 306.795 394.025 308.108C395.337 309.379 395.204 311.569 394.338 313.061C393.259 314.917 391.185 315.238 389.317 315.882C390.159 316.997 391.466 316.91 392.224 318.379C393.229 320.333 392.601 322.421 391.369 324.111C388.696 327.779 383.402 328.089 379.269 328.612C375.209 329.126 370.944 329.249 366.856 328.97C364.527 328.812 362.229 328.695 359.928 328.367C357.282 327.99 357.537 329.844 356.594 331.741C355.682 333.578 354.365 334.365 352.327 334.252C350.127 334.129 347.688 333.98 345.509 333.611C343.422 333.258 341.615 332.181 339.614 331.732C337.811 331.327 336.381 330.673 334.668 329.797C332.703 328.791 331.658 327.108 329.938 325.952C328.172 324.766 326.325 326.629 324.589 327.557C320.369 329.811 315.739 330.808 311.124 331.917C306.418 333.047 301.835 334.494 297.048 335.276C294.821 335.64 292.705 335.591 290.488 335.827C287.934 336.1 285.719 337.076 283.11 337.081C273.897 337.1 264.624 338.763 255.406 339.071C246.281 339.376 237.008 338.621 227.892 339.232C223.232 339.545 218.721 338.917 214.086 339.158C209.305 339.408 204.355 339.156 199.584 338.791C189.683 338.033 180.089 338.23 170.291 337.739C165.195 337.484 159.999 337.004 154.966 336.195C150.032 335.401 144.448 336.315 140.959 332.023C140.575 333.706 140.47 335.45 139.24 336.777C137.947 338.173 135.863 338.736 134.132 339.371C129.711 340.994 125.241 342.535 120.79 344.074C116.57 345.534 112.323 347.115 108.07 348.453C103.6 349.859 99.3475 351.564 94.9527 353.215C90.9706 354.71 86.8448 355.892 83.0075 357.695C81.4245 358.439 79.7666 358.5 78.2534 359.195C76.3844 360.052 74.6483 360.875 72.6459 361.494C70.9284 362.024 69.3573 362.406 67.6952 363.096C66.0496 363.779 63.7183 364.965 61.9962 364.057C60.7855 363.418 60.3103 361.952 59.9379 360.727C59.4714 359.196 59.8691 356.539 58.056 356.608C56.2646 356.675 53.7357 358.4 51.9795 358.984C49.8783 359.685 47.7274 360.855 45.5632 361.252C43.3963 361.649 41.6907 361.53 40.554 359.515C39.2746 357.248 39.4876 354.845 39.8703 352.379C36.182 352.37 32.7657 352.717 29.0453 352.843C26.9958 352.913 25.0027 353.004 22.959 352.778C21.1143 352.574 18.3718 353.152 16.7717 352.309C13.5194 350.592 14.0034 345.736 15.6438 343.08C16.5551 341.606 17.9829 340.612 19.434 339.717C21.2539 338.596 22.5881 337.324 24.182 335.896C23.1425 335.179 21.7907 335.527 20.7714 334.674C19.9796 334.012 19.4868 332.908 19.1253 331.965C18.4514 330.209 19.3197 326.178 17.7993 325.183C16.9874 324.652 15.5492 324.877 14.6214 324.451C13.3539 323.869 12.4639 322.796 11.9178 321.519C10.688 318.64 11.7419 315.644 12.9417 312.955C8.39594 312.18 1.73193 311.871 0.431808 306.607C0.0160178 304.926 -0.0408761 302.979 0.531094 301.326C1.38026 298.873 3.35785 298.74 5.55058 298.021C14.7181 295.012 23.3044 290.126 33.1815 289.402C38.472 289.014 43.8007 288.81 49.085 288.261C54.3925 287.71 59.5092 286.737 64.8519 287.397C67.1248 287.678 69.756 287.428 71.9301 287.839C74.0324 288.235 74.2987 290.715 72.6919 292.147C71.1301 293.537 68.865 292.648 67.0053 292.804C64.3699 293.025 62.1498 294.272 59.6892 295.057C53.6514 296.984 47.0355 298.351 40.7392 299.043C37.3591 299.414 34.1667 299.464 30.8579 300.365C27.8522 301.184 24.8776 302.115 21.8615 302.899C25.1568 303.78 31.54 303.682 32.6369 307.696C33.1525 309.586 32.5806 312.2 30.9195 313.368C29.955 314.046 27.8481 313.737 27.241 314.75C29.8355 315.069 32.7947 313.073 34.2189 315.927C35.8443 319.185 34.2541 321.756 32.1746 324.175C34.012 323.87 35.9012 324.217 37.7567 323.982C39.1887 323.8 40.5261 323.369 41.8867 323.818C42.5694 324.043 42.4794 324.651 43.3415 324.654C43.9683 324.657 44.9069 323.975 45.4509 323.713C47.5185 322.715 49.6166 321.903 51.7535 321.069C54.3537 320.056 56.8246 319.276 59.4197 318.64C63.0031 317.761 66.5999 315.505 70.0958 314.229C71.5769 313.689 73.4811 313.135 74.217 311.593C74.9762 310.002 74.3944 307.673 74.3478 305.99C74.216 301.257 74.2723 296.518 74.3013 291.784C74.3256 287.802 74.4213 283.895 74.7755 279.929C75.1991 275.184 74.82 270.455 75.0015 265.702C75.1686 261.337 74.7771 256.982 74.896 252.619C75.0289 247.758 75.272 242.915 75.3222 238.049C75.4116 229.308 75.7059 220.576 75.875 211.837C76.0488 202.86 77.0003 193.879 78.9189 185.101C79.7785 181.169 80.9007 177.164 82.3968 173.428C82.8705 172.245 83.367 172.178 82.2282 171.501C81.5528 171.101 80.7186 171.548 80.0562 171.637C78.663 171.824 77.4192 171.906 76.0012 171.822C67.8726 171.346 59.4564 171.731 51.3573 172.462C47.1451 172.842 42.9102 173.204 38.6809 173.355C34.463 173.505 30.2451 174.159 26.0267 173.85C18.9588 173.333 10.8974 174.141 4.84001 169.589C-1.62388 164.732 -1.01519 156.126 3.15875 149.908C7.76502 143.046 15.4587 139.136 21.8833 134.328C28.1951 129.604 35.6142 126.139 42.498 122.334C57.2342 114.188 73.0694 106.649 88.9357 101.02C105.078 95.2933 121.275 88.7099 138.856 89.829C147.763 90.3958 157.728 90.7268 165.585 95.4593C169.782 97.9881 173.845 100.625 177.451 103.965C179.15 105.539 180.647 107.478 182.456 108.916C184.138 110.252 185.787 109.337 187.708 108.846C186.347 104.454 184.986 100.061 183.625 95.6687C181.745 97.1271 179.159 97.6815 176.715 97.1659C173.748 96.5396 173.989 95.2721 174.254 92.7334C174.378 91.5558 174.699 91.757 173.677 91.0133C172.839 90.4031 171.308 90.2035 170.344 89.6749C167.937 88.3567 165.852 86.421 164.965 83.7634C164.083 81.1207 164.708 78.6694 165.285 76.0464C165.978 72.8923 164.264 74.211 162.302 72.7444C161.44 72.099 161.131 71.5384 161.279 70.4725C161.4 69.6074 163.11 68.3615 163.034 67.5098C162.941 66.4832 162.37 66.598 161.558 65.979C160.662 65.2959 160.017 64.4581 159.622 63.3829C158.785 61.1059 160.491 59.6992 161.206 57.5996C161.552 56.5818 161.893 55.7115 162.573 54.8551C163.779 53.3377 164.247 53.3709 165.93 53.3843C167.346 53.3952 167.331 53.2793 168.392 51.9983C168.804 51.5013 169.214 51.0075 169.57 50.4681C170.181 49.5419 170.351 49.6675 169.697 48.944C167.705 46.7389 166.797 50.1816 165.027 49.9737C162.981 49.7332 162.614 46.4881 161.331 45.4041C160.433 44.6455 159.408 44.9346 158.427 44.4221C157.226 43.7958 156.985 42.6017 156.206 41.601C154.941 39.9771 153.104 39.6906 152.26 37.6303C151.782 36.461 151.716 35.2571 151.619 34.0173C151.48 32.2522 151.018 30.857 150.504 29.1767C149.981 27.4629 150.11 26.2243 150.961 24.6475C151.838 23.0226 151.941 22.476 151.721 20.6432C151.552 19.2479 151.501 18.0093 152.229 16.7646C153.014 15.4231 153.177 14.7228 153.433 13.1947C153.656 11.8547 154.082 10.8897 155.377 10.3338C156.26 9.9547 157.216 10.3767 157.839 9.51357C158.462 8.65199 158.296 7.27171 158.935 6.31964C159.977 4.76663 161.545 4.52357 163.253 4.17346Z" fill="black"/>
<path fill-rule="evenodd" clip-rule="evenodd" d="M214.867 73.1855C214.261 71.7618 212.234 65.195 215.569 65.1614C218.215 65.1345 217.379 70.833 217.411 72.2319C217.472 74.8503 220.211 75.2221 221.236 77.5974C222.431 80.3667 221.606 83.6734 219.743 85.9307C218.32 87.6534 215.583 89.6274 213.628 87.5184C211.455 85.1716 213.543 83.8544 215.065 82.3929C217.269 80.2752 213.052 79.6598 211.957 77.9418C210.097 75.0219 212.139 73.5031 214.867 73.1855Z" fill="black"/>
<path fill-rule="evenodd" clip-rule="evenodd" d="M205.313 74.6667C205.009 76.0185 205.101 79.1054 203.633 79.834C201.17 81.0561 200.601 75.1626 200.62 73.8615C200.641 72.4776 201.119 69.2076 203.16 69.6312C205.45 70.1064 204.151 74.3465 205.313 74.6667Z" fill="black"/>
<path fill-rule="evenodd" clip-rule="evenodd" d="M214.527 91.7844C218.168 91.8976 217.964 96.2407 214.471 96.3922C211.221 96.5334 211.302 91.6846 214.527 91.7844Z" fill="black"/>
<path fill-rule="evenodd" clip-rule="evenodd" d="M222.272 156.518C221.932 157.965 221.138 159.33 219.949 160.241C220.23 159.669 221.447 156.261 222.272 156.518Z" fill="black"/>
</svg>
